<svg xmlns="http://www.w3.org/2000/svg" xmlns:xlink="http://www.w3.org/1999/xlink" width="1000" zoomAndPan="magnify" viewBox="0 0 750 749.999995" height="1000" preserveAspectRatio="xMidYMid meet" version="1.2"><defs><clipPath id="882bd51f0d"><path d="M 340 139.625 L 704.953125 139.625 L 704.953125 649.414062 L 340 649.414062 Z M 340 139.625 "/></clipPath></defs><g id="0e54b89a92"><g clip-rule="nonzero" clip-path="url(#882bd51f0d)"><path style=" stroke:none;fill-rule:nonzero;fill:#000000;fill-opacity:1;" d="M 680.738281 163.839844 L 704.953125 163.839844 L 704.953125 236.644531 L 680.738281 236.644531 Z M 656.363281 236.644531 L 680.738281 236.644531 L 680.738281 285.234375 L 656.363281 285.234375 Z M 632.148438 139.625 L 680.738281 139.625 L 680.738281 163.839844 L 632.148438 163.839844 Z M 632.148438 285.234375 L 656.363281 285.234375 L 656.363281 333.824219 L 632.148438 333.824219 Z M 607.773438 333.824219 L 632.148438 333.824219 L 632.148438 382.414062 L 607.773438 382.414062 Z M 607.773438 163.839844 L 632.148438 163.839844 L 632.148438 212.429688 L 607.773438 212.429688 Z M 583.558594 382.414062 L 607.773438 382.414062 L 607.773438 430.839844 L 583.558594 430.839844 Z M 583.558594 212.429688 L 607.773438 212.429688 L 607.773438 261.019531 L 583.558594 261.019531 Z M 559.34375 503.804688 L 583.558594 503.804688 L 583.558594 576.609375 L 559.34375 576.609375 Z M 559.34375 430.839844 L 583.558594 430.839844 L 583.558594 479.429688 L 559.34375 479.429688 Z M 559.34375 261.019531 L 583.558594 261.019531 L 583.558594 309.609375 L 559.34375 309.609375 Z M 534.96875 309.609375 L 559.34375 309.609375 L 559.34375 358.039062 L 534.96875 358.039062 Z M 534.96875 552.234375 L 510.753906 552.234375 L 510.753906 576.609375 L 486.539062 576.609375 L 486.539062 552.234375 L 462.167969 552.234375 L 462.167969 528.019531 L 437.953125 528.019531 L 437.953125 552.234375 L 413.578125 552.234375 L 413.578125 503.804688 L 389.363281 503.804688 L 389.363281 576.609375 L 365.148438 576.609375 L 365.148438 600.824219 L 340.773438 600.824219 L 340.773438 649.414062 L 486.539062 649.414062 L 486.539062 625.039062 L 534.96875 625.039062 L 534.96875 600.824219 L 559.34375 600.824219 L 559.34375 576.609375 L 534.96875 576.609375 Z M 510.753906 479.429688 L 559.34375 479.429688 L 559.34375 503.804688 L 510.753906 503.804688 Z M 510.753906 358.039062 L 534.96875 358.039062 L 534.96875 406.628906 L 510.753906 406.628906 Z M 510.753906 479.429688 L 510.753906 406.628906 L 486.539062 406.628906 L 486.539062 455.214844 L 437.953125 455.214844 L 437.953125 479.429688 Z M 413.578125 479.429688 L 437.953125 479.429688 L 437.953125 503.804688 L 413.578125 503.804688 Z M 413.578125 479.429688 "/></g><path style=" stroke:none;fill-rule:nonzero;fill:#000000;fill-opacity:1;" d="M 494.027344 227.066406 L 517 227.066406 L 517 342.234375 L 494.027344 342.234375 Z M 470.902344 342.234375 L 494.027344 342.234375 L 494.027344 388.332031 L 470.902344 388.332031 Z M 470.902344 180.96875 L 494.027344 180.96875 L 494.027344 227.066406 L 470.902344 227.066406 Z M 447.929688 388.332031 L 470.902344 388.332031 L 470.902344 411.304688 L 447.929688 411.304688 Z M 447.929688 157.996094 L 470.902344 157.996094 L 470.902344 180.96875 L 447.929688 180.96875 Z M 424.804688 411.304688 L 447.929688 411.304688 L 447.929688 434.429688 L 424.804688 434.429688 Z M 424.804688 273.164062 L 447.929688 273.164062 L 447.929688 365.207031 L 424.804688 365.207031 Z M 401.832031 434.429688 L 424.804688 434.429688 L 424.804688 457.402344 L 401.832031 457.402344 Z M 401.832031 365.207031 L 424.804688 365.207031 L 424.804688 388.332031 L 401.832031 388.332031 Z M 401.832031 135.023438 L 447.929688 135.023438 L 447.929688 157.996094 L 401.832031 157.996094 Z M 378.859375 457.402344 L 401.832031 457.402344 L 401.832031 480.375 L 378.859375 480.375 Z M 378.859375 388.332031 L 401.832031 388.332031 L 401.832031 411.304688 L 378.859375 411.304688 Z M 355.734375 250.191406 L 424.804688 250.191406 L 424.804688 273.164062 L 355.734375 273.164062 Z M 355.734375 480.375 L 378.859375 480.375 L 378.859375 503.496094 L 355.734375 503.496094 Z M 332.761719 503.496094 L 355.734375 503.496094 L 355.734375 526.472656 L 332.761719 526.472656 Z M 286.664062 411.304688 L 378.859375 411.304688 L 378.859375 434.429688 L 286.664062 434.429688 Z M 332.761719 273.164062 L 355.734375 273.164062 L 355.734375 296.136719 L 332.761719 296.136719 Z M 332.761719 227.066406 L 378.859375 227.066406 L 378.859375 204.09375 L 401.832031 204.09375 L 401.832031 180.96875 L 378.859375 180.96875 L 378.859375 157.996094 L 332.761719 157.996094 L 332.761719 180.96875 L 309.789062 180.96875 L 309.789062 204.09375 L 332.761719 204.09375 Z M 309.789062 526.472656 L 332.761719 526.472656 L 332.761719 549.445312 L 309.789062 549.445312 Z M 309.789062 296.136719 L 332.761719 296.136719 L 332.761719 319.261719 L 309.789062 319.261719 Z M 286.664062 319.261719 L 309.789062 319.261719 L 309.789062 342.234375 L 286.664062 342.234375 Z M 171.496094 549.445312 L 309.789062 549.445312 L 309.789062 572.566406 L 171.496094 572.566406 Z M 263.691406 342.234375 L 286.664062 342.234375 L 286.664062 411.304688 L 263.691406 411.304688 Z M 240.566406 111.898438 L 401.832031 111.898438 L 401.832031 135.023438 L 240.566406 135.023438 Z M 263.691406 434.429688 L 217.59375 434.429688 L 217.59375 457.402344 L 194.621094 457.402344 L 194.621094 503.496094 L 217.59375 503.496094 L 217.59375 526.472656 L 263.691406 526.472656 L 263.691406 503.496094 L 286.664062 503.496094 L 286.664062 457.402344 L 263.691406 457.402344 Z M 194.621094 135.023438 L 240.566406 135.023438 L 240.566406 157.996094 L 194.621094 157.996094 Z M 194.621094 296.136719 L 240.566406 296.136719 L 240.566406 273.164062 L 263.691406 273.164062 L 263.691406 227.066406 L 240.566406 227.066406 L 240.566406 204.09375 L 194.621094 204.09375 L 194.621094 227.066406 L 171.496094 227.066406 L 171.496094 273.164062 L 194.621094 273.164062 Z M 125.550781 411.304688 L 171.496094 411.304688 L 171.496094 388.332031 L 194.621094 388.332031 L 194.621094 342.234375 L 171.496094 342.234375 L 171.496094 319.261719 L 125.550781 319.261719 L 125.550781 342.234375 L 102.425781 342.234375 L 102.425781 388.332031 L 125.550781 388.332031 Z M 148.523438 157.996094 L 194.621094 157.996094 L 194.621094 180.96875 L 148.523438 180.96875 Z M 148.523438 526.472656 L 171.496094 526.472656 L 171.496094 549.445312 L 148.523438 549.445312 Z M 102.425781 503.496094 L 148.523438 503.496094 L 148.523438 526.472656 L 102.425781 526.472656 Z M 125.550781 180.96875 L 148.523438 180.96875 L 148.523438 204.09375 L 125.550781 204.09375 Z M 102.425781 204.09375 L 125.550781 204.09375 L 125.550781 250.191406 L 102.425781 250.191406 Z M 79.453125 457.402344 L 102.425781 457.402344 L 102.425781 503.496094 L 79.453125 503.496094 Z M 79.453125 250.191406 L 102.425781 250.191406 L 102.425781 296.136719 L 79.453125 296.136719 Z M 56.332031 296.136719 L 79.453125 296.136719 L 79.453125 457.402344 L 56.332031 457.402344 Z M 56.332031 296.136719 "/></g></svg>