<svg xmlns="http://www.w3.org/2000/svg" xmlns:xlink="http://www.w3.org/1999/xlink" width="1000" zoomAndPan="magnify" viewBox="0 0 750 749.999995" height="1000" preserveAspectRatio="xMidYMid meet" version="1.2"><defs><clipPath id="9a3edb145d"><path d="M 340 139.625 L 704.972656 139.625 L 704.972656 649.414062 L 340 649.414062 Z M 340 139.625 "/></clipPath></defs><g id="3459a7111c"><g clip-rule="nonzero" clip-path="url(#9a3edb145d)"><path style=" stroke:none;fill-rule:nonzero;fill:#ffffff;fill-opacity:1;" d="M 680.757812 163.839844 L 704.972656 163.839844 L 704.972656 236.644531 L 680.757812 236.644531 Z M 656.382812 236.644531 L 680.757812 236.644531 L 680.757812 285.234375 L 656.382812 285.234375 Z M 632.167969 139.625 L 680.757812 139.625 L 680.757812 163.839844 L 632.167969 163.839844 Z M 632.167969 285.234375 L 656.382812 285.234375 L 656.382812 333.824219 L 632.167969 333.824219 Z M 607.792969 333.824219 L 632.167969 333.824219 L 632.167969 382.414062 L 607.792969 382.414062 Z M 607.792969 163.839844 L 632.167969 163.839844 L 632.167969 212.429688 L 607.792969 212.429688 Z M 583.578125 382.414062 L 607.792969 382.414062 L 607.792969 430.839844 L 583.578125 430.839844 Z M 583.578125 212.429688 L 607.792969 212.429688 L 607.792969 261.019531 L 583.578125 261.019531 Z M 559.359375 503.804688 L 583.578125 503.804688 L 583.578125 576.609375 L 559.359375 576.609375 Z M 559.359375 430.839844 L 583.578125 430.839844 L 583.578125 479.429688 L 559.359375 479.429688 Z M 559.359375 261.019531 L 583.578125 261.019531 L 583.578125 309.609375 L 559.359375 309.609375 Z M 534.984375 309.609375 L 559.359375 309.609375 L 559.359375 358.039062 L 534.984375 358.039062 Z M 534.984375 552.234375 L 510.769531 552.234375 L 510.769531 576.609375 L 486.554688 576.609375 L 486.554688 552.234375 L 462.179688 552.234375 L 462.179688 528.019531 L 437.964844 528.019531 L 437.964844 552.234375 L 413.589844 552.234375 L 413.589844 503.804688 L 389.375 503.804688 L 389.375 576.609375 L 365.160156 576.609375 L 365.160156 600.824219 L 340.78125 600.824219 L 340.78125 625.039062 L 340.785156 649.414062 L 486.554688 649.414062 L 486.554688 625.039062 L 534.984375 625.039062 L 534.984375 600.824219 L 559.359375 600.824219 L 559.359375 576.609375 L 534.984375 576.609375 Z M 510.769531 479.429688 L 559.359375 479.429688 L 559.359375 503.804688 L 510.769531 503.804688 Z M 510.769531 358.039062 L 534.984375 358.039062 L 534.984375 406.628906 L 510.769531 406.628906 Z M 510.769531 479.429688 L 510.769531 406.628906 L 486.554688 406.628906 L 486.554688 455.214844 L 437.964844 455.214844 L 437.964844 479.429688 Z M 413.589844 479.429688 L 437.964844 479.429688 L 437.964844 503.804688 L 413.589844 503.804688 Z M 413.589844 479.429688 "/></g><path style=" stroke:none;fill-rule:nonzero;fill:#ffffff;fill-opacity:1;" d="M 494.042969 227.066406 L 517.015625 227.066406 L 517.015625 342.234375 L 494.042969 342.234375 Z M 470.917969 342.234375 L 494.042969 342.234375 L 494.042969 388.332031 L 470.917969 388.332031 Z M 470.917969 180.96875 L 494.042969 180.96875 L 494.042969 227.066406 L 470.917969 227.066406 Z M 447.941406 388.332031 L 470.917969 388.332031 L 470.917969 411.304688 L 447.941406 411.304688 Z M 447.941406 157.996094 L 470.917969 157.996094 L 470.917969 180.96875 L 447.941406 180.96875 Z M 424.816406 411.304688 L 447.941406 411.304688 L 447.941406 434.429688 L 424.816406 434.429688 Z M 424.816406 273.164062 L 447.941406 273.164062 L 447.941406 365.207031 L 424.816406 365.207031 Z M 401.84375 434.429688 L 424.816406 434.429688 L 424.816406 457.402344 L 401.84375 457.402344 Z M 401.84375 365.207031 L 424.816406 365.207031 L 424.816406 388.332031 L 401.84375 388.332031 Z M 401.84375 135.023438 L 447.941406 135.023438 L 447.941406 157.996094 L 401.84375 157.996094 Z M 378.871094 457.402344 L 401.84375 457.402344 L 401.84375 480.375 L 378.871094 480.375 Z M 378.871094 388.332031 L 401.84375 388.332031 L 401.84375 411.304688 L 378.871094 411.304688 Z M 355.746094 250.191406 L 424.816406 250.191406 L 424.816406 273.164062 L 355.746094 273.164062 Z M 355.746094 480.375 L 378.871094 480.375 L 378.871094 503.496094 L 355.746094 503.496094 Z M 332.773438 503.496094 L 355.746094 503.496094 L 355.746094 526.472656 L 332.773438 526.472656 Z M 286.671875 411.304688 L 378.871094 411.304688 L 378.871094 434.429688 L 286.671875 434.429688 Z M 332.773438 273.164062 L 355.746094 273.164062 L 355.746094 296.136719 L 332.773438 296.136719 Z M 332.773438 227.066406 L 378.871094 227.066406 L 378.871094 204.09375 L 401.84375 204.09375 L 401.84375 180.96875 L 378.871094 180.96875 L 378.871094 157.996094 L 332.773438 157.996094 L 332.773438 180.96875 L 309.796875 180.96875 L 309.796875 204.09375 L 332.773438 204.09375 Z M 309.796875 526.472656 L 332.773438 526.472656 L 332.773438 549.445312 L 309.796875 549.445312 Z M 309.796875 296.136719 L 332.773438 296.136719 L 332.773438 319.261719 L 309.796875 319.261719 Z M 286.671875 319.261719 L 309.796875 319.261719 L 309.796875 342.234375 L 286.671875 342.234375 Z M 171.5 549.445312 L 309.796875 549.445312 L 309.796875 572.566406 L 171.5 572.566406 Z M 263.699219 342.234375 L 286.671875 342.234375 L 286.671875 411.304688 L 263.699219 411.304688 Z M 240.574219 111.898438 L 401.84375 111.898438 L 401.84375 135.023438 L 240.574219 135.023438 Z M 263.699219 434.429688 L 217.601562 434.429688 L 217.601562 457.402344 L 194.625 457.402344 L 194.625 503.496094 L 217.601562 503.496094 L 217.601562 526.472656 L 263.699219 526.472656 L 263.699219 503.496094 L 286.671875 503.496094 L 286.671875 457.402344 L 263.699219 457.402344 Z M 194.625 135.023438 L 240.574219 135.023438 L 240.574219 157.996094 L 194.625 157.996094 Z M 194.625 296.136719 L 240.574219 296.136719 L 240.574219 273.164062 L 263.699219 273.164062 L 263.699219 227.066406 L 240.574219 227.066406 L 240.574219 204.09375 L 194.625 204.09375 L 194.625 227.066406 L 171.5 227.066406 L 171.5 273.164062 L 194.625 273.164062 Z M 125.554688 411.304688 L 171.5 411.304688 L 171.5 388.332031 L 194.625 388.332031 L 194.625 342.234375 L 171.5 342.234375 L 171.5 319.261719 L 125.554688 319.261719 L 125.554688 342.234375 L 102.429688 342.234375 L 102.429688 388.332031 L 125.554688 388.332031 Z M 148.527344 157.996094 L 194.625 157.996094 L 194.625 180.96875 L 148.527344 180.96875 Z M 148.527344 526.472656 L 171.5 526.472656 L 171.5 549.445312 L 148.527344 549.445312 Z M 102.429688 503.496094 L 148.527344 503.496094 L 148.527344 526.472656 L 102.429688 526.472656 Z M 125.554688 180.96875 L 148.527344 180.96875 L 148.527344 204.09375 L 125.554688 204.09375 Z M 102.429688 204.09375 L 125.554688 204.09375 L 125.554688 250.191406 L 102.429688 250.191406 Z M 79.457031 457.402344 L 102.429688 457.402344 L 102.429688 503.496094 L 79.457031 503.496094 Z M 79.457031 250.191406 L 102.429688 250.191406 L 102.429688 296.136719 L 79.457031 296.136719 Z M 56.332031 296.136719 L 79.457031 296.136719 L 79.457031 457.402344 L 56.332031 457.402344 Z M 56.332031 296.136719 "/></g></svg>