<svg xmlns="http://www.w3.org/2000/svg" xmlns:xlink="http://www.w3.org/1999/xlink" width="1000" zoomAndPan="magnify" viewBox="0 0 750 749.999995" height="1000" preserveAspectRatio="xMidYMid meet" version="1.2"><g id="1bd2b6d2d8"><path style=" stroke:none;fill-rule:nonzero;fill:#ffffff;fill-opacity:1;" d="M 646.5 217.96875 L 103.6875 217.96875 L 103.6875 132.28125 L 75 132.28125 L 75 617.90625 L 103.6875 617.90625 L 103.6875 246.46875 L 646.5 246.46875 L 646.5 617.90625 L 675 617.90625 L 675 132.28125 L 646.5 132.28125 Z M 103.6875 617.90625 L 646.5 617.90625 L 646.5 646.40625 L 103.6875 646.40625 Z M 103.6875 617.90625 "/><path style=" stroke:none;fill-rule:nonzero;fill:#ffffff;fill-opacity:1;" d="M 560.8125 446.53125 L 589.3125 446.53125 L 589.3125 532.21875 L 560.8125 532.21875 Z M 532.125 532.21875 L 560.8125 532.21875 L 560.8125 560.71875 L 532.125 560.71875 Z M 532.125 417.84375 L 560.8125 417.84375 L 560.8125 446.53125 L 532.125 446.53125 Z M 446.4375 560.71875 L 532.125 560.71875 L 532.125 589.40625 L 446.4375 589.40625 Z M 532.125 417.84375 L 532.125 389.34375 L 503.625 389.34375 L 503.625 275.15625 L 160.6875 275.15625 L 160.6875 446.53125 L 217.875 446.53125 L 217.875 417.84375 L 189.375 417.84375 L 189.375 303.65625 L 475.125 303.65625 L 475.125 389.34375 L 446.4375 389.34375 L 446.4375 417.84375 Z M 417.9375 532.21875 L 446.4375 532.21875 L 446.4375 560.71875 L 417.9375 560.71875 Z M 417.9375 532.21875 "/><path style=" stroke:none;fill-rule:nonzero;fill:#ffffff;fill-opacity:1;" d="M 417.9375 417.84375 L 446.4375 417.84375 L 446.4375 446.53125 L 417.9375 446.53125 Z M 389.25 446.53125 L 417.9375 446.53125 L 417.9375 532.21875 L 389.25 532.21875 Z M 246.375 160.78125 L 275.0625 160.78125 L 275.0625 189.28125 L 246.375 189.28125 Z M 189.375 475.03125 L 189.375 503.71875 L 160.6875 503.71875 L 160.6875 532.21875 L 360.75 532.21875 L 360.75 446.53125 L 332.25 446.53125 L 332.25 417.84375 L 303.5625 417.84375 L 303.5625 389.34375 L 275.0625 389.34375 L 275.0625 417.84375 L 246.375 417.84375 L 246.375 446.53125 L 217.875 446.53125 L 217.875 475.03125 Z M 189.375 160.78125 L 217.875 160.78125 L 217.875 189.28125 L 189.375 189.28125 Z M 132.1875 160.78125 L 160.6875 160.78125 L 160.6875 189.28125 L 132.1875 189.28125 Z M 103.6875 103.59375 L 646.5 103.59375 L 646.5 132.28125 L 103.6875 132.28125 Z M 103.6875 103.59375 "/></g></svg>