<svg xmlns="http://www.w3.org/2000/svg" xmlns:xlink="http://www.w3.org/1999/xlink" width="1000" zoomAndPan="magnify" viewBox="0 0 750 749.999995" height="1000" preserveAspectRatio="xMidYMid meet" version="1.2"><defs><clipPath id="d50187abd6"><path d="M 92.128906 118 L 657.628906 118 L 657.628906 631 L 92.128906 631 Z M 92.128906 118 "/></clipPath><clipPath id="b260b95b23"><path d="M 118 280 L 631 280 L 631 657.628906 L 118 657.628906 Z M 118 280 "/></clipPath><clipPath id="c8f78fb431"><path d="M 118 92.128906 L 631 92.128906 L 631 577 L 118 577 Z M 118 92.128906 "/></clipPath></defs><g id="dbdc2ff4e6"><g clip-rule="nonzero" clip-path="url(#d50187abd6)"><path style=" stroke:none;fill-rule:nonzero;fill:#ffffff;fill-opacity:1;" d="M 118.988281 226.789062 L 630.765625 226.789062 L 630.765625 630.589844 L 657.628906 630.589844 L 657.628906 118.988281 L 630.765625 118.988281 L 630.765625 199.75 L 118.988281 199.75 L 118.988281 118.988281 L 92.128906 118.988281 L 92.128906 630.589844 L 118.988281 630.589844 Z M 118.988281 226.789062 "/></g><g clip-rule="nonzero" clip-path="url(#b260b95b23)"><path style=" stroke:none;fill-rule:nonzero;fill:#ffffff;fill-opacity:1;" d="M 118.988281 630.589844 L 630.765625 630.589844 L 630.765625 657.628906 L 118.988281 657.628906 Z M 469.070312 549.828125 L 576.867188 549.828125 L 576.867188 576.867188 L 469.070312 576.867188 Z M 469.070312 495.929688 L 576.867188 495.929688 L 576.867188 522.96875 L 469.070312 522.96875 Z M 172.886719 280.511719 L 172.886719 442.207031 L 576.867188 442.207031 L 576.867188 280.511719 Z M 549.828125 415.171875 L 361.449219 415.171875 L 361.449219 388.308594 L 334.410156 388.308594 L 334.410156 415.171875 L 199.75 415.171875 L 199.75 307.546875 L 469.070312 307.546875 L 469.070312 334.410156 L 496.105469 334.410156 L 496.105469 307.546875 L 549.828125 307.546875 Z M 549.828125 415.171875 "/></g><g clip-rule="nonzero" clip-path="url(#c8f78fb431)"><path style=" stroke:none;fill-rule:nonzero;fill:#ffffff;fill-opacity:1;" d="M 415.347656 334.410156 L 469.070312 334.410156 L 469.070312 361.269531 L 415.347656 361.269531 Z M 361.449219 361.269531 L 415.347656 361.269531 L 415.347656 388.308594 L 361.449219 388.308594 Z M 172.886719 549.828125 L 388.308594 549.828125 L 388.308594 576.867188 L 172.886719 576.867188 Z M 172.886719 495.929688 L 388.308594 495.929688 L 388.308594 522.96875 L 172.886719 522.96875 Z M 253.648438 145.851562 L 280.6875 145.851562 L 280.6875 172.886719 L 253.648438 172.886719 Z M 226.789062 334.410156 L 280.6875 334.410156 L 280.6875 388.308594 L 226.789062 388.308594 Z M 199.75 145.851562 L 226.789062 145.851562 L 226.789062 172.886719 L 199.75 172.886719 Z M 146.027344 145.851562 L 172.886719 145.851562 L 172.886719 172.886719 L 146.027344 172.886719 Z M 118.988281 92.128906 L 630.765625 92.128906 L 630.765625 118.988281 L 118.988281 118.988281 Z M 118.988281 92.128906 "/></g></g></svg>