<svg xmlns="http://www.w3.org/2000/svg" xmlns:xlink="http://www.w3.org/1999/xlink" width="1000" zoomAndPan="magnify" viewBox="0 0 750 749.999995" height="1000" preserveAspectRatio="xMidYMid meet" version="1.2"><defs><clipPath id="cfa01d4e2b"><path d="M 60.8125 135 L 689.3125 135 L 689.3125 615 L 60.8125 615 Z M 60.8125 135 "/></clipPath></defs><g id="35bca507ba"><g clip-rule="nonzero" clip-path="url(#cfa01d4e2b)"><path style=" stroke:none;fill-rule:nonzero;fill:#000000;fill-opacity:1;" d="M 60.8125 135.628906 L 60.8125 614.367188 L 689.183594 614.367188 L 689.183594 135.628906 Z M 210.246094 584.324219 L 90.660156 584.324219 L 90.660156 165.476562 L 210.246094 165.476562 Z M 509.507812 584.324219 L 240.289062 584.324219 L 240.289062 165.476562 L 509.507812 165.476562 Z M 659.140625 584.324219 L 539.550781 584.324219 L 539.550781 165.476562 L 659.140625 165.476562 Z M 659.140625 584.324219 "/></g><path style=" stroke:none;fill-rule:nonzero;fill:#000000;fill-opacity:1;" d="M 569.398438 464.738281 L 629.292969 464.738281 L 629.292969 524.628906 L 569.398438 524.628906 Z M 569.398438 344.953125 L 629.292969 344.953125 L 629.292969 404.84375 L 569.398438 404.84375 Z M 569.398438 225.367188 L 629.292969 225.367188 L 629.292969 285.257812 L 569.398438 285.257812 Z M 359.878906 434.890625 L 389.921875 434.890625 L 389.921875 404.84375 L 419.769531 404.84375 L 419.769531 374.996094 L 449.617188 374.996094 L 449.617188 344.953125 L 419.769531 344.953125 L 419.769531 315.105469 L 389.921875 315.105469 L 389.921875 285.257812 L 359.878906 285.257812 L 359.878906 255.214844 L 300.183594 255.214844 L 300.183594 464.738281 L 359.878906 464.738281 Z M 120.507812 464.738281 L 180.398438 464.738281 L 180.398438 524.628906 L 120.507812 524.628906 Z M 120.507812 344.953125 L 180.398438 344.953125 L 180.398438 404.84375 L 120.507812 404.84375 Z M 120.507812 225.367188 L 180.398438 225.367188 L 180.398438 285.257812 L 120.507812 285.257812 Z M 120.507812 225.367188 "/></g></svg>