<svg xmlns="http://www.w3.org/2000/svg" xmlns:xlink="http://www.w3.org/1999/xlink" width="1000" zoomAndPan="magnify" viewBox="0 0 750 749.999995" height="1000" preserveAspectRatio="xMidYMid meet" version="1.2"><defs><clipPath id="ab0b96472a"><path d="M 60.8125 135 L 689.3125 135 L 689.3125 615 L 60.8125 615 Z M 60.8125 135 "/></clipPath></defs><g id="d6efb8fdc3"><g clip-rule="nonzero" clip-path="url(#ab0b96472a)"><path style=" stroke:none;fill-rule:nonzero;fill:#ffffff;fill-opacity:1;" d="M 60.8125 135.644531 L 60.8125 614.480469 L 689.3125 614.480469 L 689.3125 135.644531 Z M 210.277344 584.429688 L 90.664062 584.429688 L 90.664062 165.496094 L 210.277344 165.496094 Z M 509.601562 584.429688 L 240.328125 584.429688 L 240.328125 165.496094 L 509.601562 165.496094 Z M 659.261719 584.429688 L 539.648438 584.429688 L 539.648438 165.496094 L 659.261719 165.496094 Z M 659.261719 584.429688 "/></g><path style=" stroke:none;fill-rule:nonzero;fill:#ffffff;fill-opacity:1;" d="M 569.503906 464.820312 L 629.40625 464.820312 L 629.40625 524.722656 L 569.503906 524.722656 Z M 569.503906 345.011719 L 629.40625 345.011719 L 629.40625 404.914062 L 569.503906 404.914062 Z M 569.503906 225.402344 L 629.40625 225.402344 L 629.40625 285.304688 L 569.503906 285.304688 Z M 359.9375 434.964844 L 389.988281 434.964844 L 389.988281 404.914062 L 419.84375 404.914062 L 419.84375 375.0625 L 449.695312 375.0625 L 449.695312 345.011719 L 419.84375 345.011719 L 419.84375 315.160156 L 389.988281 315.160156 L 389.988281 285.304688 L 359.9375 285.304688 L 359.9375 255.253906 L 300.230469 255.253906 L 300.230469 464.820312 L 359.9375 464.820312 Z M 120.519531 464.820312 L 180.421875 464.820312 L 180.421875 524.722656 L 120.519531 524.722656 Z M 120.519531 345.011719 L 180.421875 345.011719 L 180.421875 404.914062 L 120.519531 404.914062 Z M 120.519531 225.402344 L 180.421875 225.402344 L 180.421875 285.304688 L 120.519531 285.304688 Z M 120.519531 225.402344 "/></g></svg>