<svg xmlns="http://www.w3.org/2000/svg" xmlns:xlink="http://www.w3.org/1999/xlink" width="1000" zoomAndPan="magnify" viewBox="0 0 750 749.999995" height="1000" preserveAspectRatio="xMidYMid meet" version="1.2"><defs><clipPath id="c361c45d0d"><path d="M 46.5 0 L 703.5 0 C 729.179688 0 750 20.820312 750 46.5 L 750 703.5 C 750 729.179688 729.179688 750 703.5 750 L 46.5 750 C 20.820312 750 0 729.179688 0 703.5 L 0 46.5 C 0 20.820312 20.820312 0 46.5 0 Z M 46.5 0 "/></clipPath><clipPath id="2f22784eac"><path d="M 19.40625 28.457031 L 730.40625 28.457031 L 730.40625 722.207031 L 19.40625 722.207031 Z M 19.40625 28.457031 "/></clipPath></defs><g id="88679319c7"><g clip-rule="nonzero" clip-path="url(#c361c45d0d)"><rect x="0" width="750" y="0" height="749.999995" style="fill:#00005b;fill-opacity:1;stroke:none;"/></g><g clip-rule="nonzero" clip-path="url(#2f22784eac)"><path style=" stroke:none;fill-rule:nonzero;fill:#00005b;fill-opacity:1;" d="M 145.3125 28.53125 L 604.5 28.53125 C 674.117188 28.53125 730.40625 84.847656 730.40625 154.503906 L 730.40625 596.160156 C 730.40625 665.816406 674.117188 722.136719 604.5 722.136719 L 145.3125 722.136719 C 75.695312 722.136719 19.40625 665.816406 19.40625 596.160156 L 19.40625 154.503906 C 19.40625 84.847656 75.695312 28.53125 145.3125 28.53125 Z M 145.3125 28.53125 "/></g><path style=" stroke:none;fill-rule:nonzero;fill:#9999ff;fill-opacity:1;" d="M 304.992188 443.507812 L 194.789062 443.507812 L 172.273438 513.460938 C 171.679688 516.125 169.308594 517.90625 166.644531 517.609375 L 110.949219 517.609375 C 107.691406 517.609375 106.804688 515.832031 107.691406 512.273438 L 203.082031 238.683594 C 203.972656 235.71875 204.859375 233.050781 206.046875 229.496094 C 207.234375 223.273438 207.824219 216.75 207.824219 210.226562 C 207.527344 208.746094 208.710938 207.261719 210.195312 206.964844 L 286.921875 206.964844 C 288.996094 206.964844 290.476562 207.855469 290.773438 209.335938 L 398.90625 511.679688 C 399.792969 514.941406 398.90625 516.421875 395.941406 516.421875 L 334.023438 516.421875 C 331.949219 516.71875 329.878906 515.234375 329.285156 513.160156 L 304.988281 442.023438 L 304.988281 443.503906 Z M 211.972656 384.523438 L 287.21875 384.523438 C 285.441406 378.296875 283.070312 370.886719 280.402344 363.179688 C 277.734375 355.179688 275.070312 346.582031 272.40625 337.6875 C 269.441406 328.5 266.777344 319.609375 263.8125 310.421875 C 260.851562 301.230469 258.1875 292.636719 255.816406 284.039062 C 253.449219 275.738281 251.375 268.03125 249.296875 260.917969 L 248.707031 260.917969 C 246.039062 273.664062 242.78125 286.410156 238.632812 299.15625 C 234.191406 313.386719 229.746094 328.203125 225.003906 343.027344 C 221.15625 358.144531 216.414062 372.074219 211.972656 384.523438 Z M 573.394531 416.832031 L 479.484375 416.832031 C 480.667969 426.019531 483.628906 435.207031 488.667969 443.210938 C 494 451.214844 501.40625 457.4375 510.292969 460.996094 C 522.144531 466.035156 535.175781 468.703125 548.210938 468.40625 C 558.582031 468.109375 568.949219 467.21875 579.019531 465.144531 C 588.203125 463.957031 597.089844 461.589844 605.386719 458.328125 C 606.867188 457.140625 607.757812 457.734375 607.757812 460.699219 L 607.757812 506.050781 C 607.757812 507.238281 607.460938 508.421875 607.164062 509.605469 C 606.574219 510.496094 605.980469 511.089844 605.089844 511.679688 C 595.613281 515.832031 585.835938 518.796875 575.464844 520.574219 C 561.542969 523.242188 547.617188 524.425781 533.398438 524.132812 C 510.882812 524.132812 491.921875 520.574219 476.515625 513.757812 C 462 507.53125 449.261719 497.75 439.191406 485.597656 C 429.710938 474.039062 422.894531 460.992188 418.75 446.765625 C 414.601562 432.832031 412.527344 418.308594 412.527344 403.492188 C 412.527344 387.484375 414.894531 371.773438 419.933594 356.359375 C 424.675781 341.539062 432.078125 327.902344 442.148438 315.75 C 451.929688 303.890625 464.070312 294.410156 477.996094 287.589844 C 491.921875 280.773438 508.507812 278.402344 527.46875 278.402344 C 543.171875 278.105469 558.875 281.070312 573.390625 287.589844 C 585.535156 292.925781 596.203125 300.929688 604.496094 311.300781 C 612.199219 321.382812 618.421875 332.644531 622.273438 345.09375 C 626.121094 356.949219 627.902344 369.101562 627.902344 381.253906 C 627.902344 388.367188 627.605469 394.59375 627.308594 400.226562 C 626.71875 405.859375 626.417969 410.007812 626.121094 412.675781 C 625.828125 414.75 624.050781 416.527344 621.976562 416.527344 C 620.199219 416.527344 616.941406 416.824219 612.199219 417.121094 C 607.457031 417.710938 601.828125 418.011719 595.015625 418.011719 C 588.199219 418.011719 581.089844 416.824219 573.390625 416.824219 Z M 479.484375 373.554688 L 541.992188 373.554688 C 549.691406 373.554688 555.324219 373.554688 558.875 373.257812 C 561.246094 372.964844 563.617188 372.367188 565.691406 370.886719 L 565.691406 367.921875 C 565.691406 364.070312 565.097656 360.511719 563.914062 356.957031 C 558.582031 340.359375 542.878906 329.09375 525.398438 329.6875 C 509.105469 328.796875 493.699219 337.394531 486 352.214844 C 482.445312 359.035156 480.371094 366.148438 479.480469 373.558594 Z M 479.484375 373.554688 "/></g></svg>