<svg xmlns="http://www.w3.org/2000/svg" xmlns:xlink="http://www.w3.org/1999/xlink" width="1000" zoomAndPan="magnify" viewBox="0 0 750 749.999995" height="1000" preserveAspectRatio="xMidYMid meet" version="1.2"><defs><clipPath id="7087907823"><path d="M 46.5 0 L 703.5 0 C 729.179688 0 750 20.820312 750 46.5 L 750 703.5 C 750 729.179688 729.179688 750 703.5 750 L 46.5 750 C 20.820312 750 0 729.179688 0 703.5 L 0 46.5 C 0 20.820312 20.820312 0 46.5 0 Z M 46.5 0 "/></clipPath><clipPath id="fc1d26015a"><path d="M 32.21875 32.21875 L 717.71875 32.21875 L 717.71875 717.71875 L 32.21875 717.71875 Z M 32.21875 32.21875 "/></clipPath><clipPath id="49a313070b"><path d="M 32.21875 107.21875 L 32.21875 642.78125 C 32.21875 684.203125 65.796875 717.78125 107.21875 717.78125 L 642.78125 717.78125 C 684.203125 717.78125 717.78125 684.203125 717.78125 642.78125 L 717.78125 107.21875 C 717.78125 65.796875 684.203125 32.21875 642.78125 32.21875 L 107.21875 32.21875 C 65.796875 32.21875 32.21875 65.796875 32.21875 107.21875 Z M 32.21875 107.21875 "/></clipPath><clipPath id="de97704bc9"><path d="M 57 57 L 693 57 L 693 693 L 57 693 Z M 57 57 "/></clipPath><clipPath id="e4be5139b5"><path d="M 32.21875 107.21875 L 32.21875 642.78125 C 32.21875 684.203125 65.796875 717.78125 107.21875 717.78125 L 642.78125 717.78125 C 684.203125 717.78125 717.78125 684.203125 717.78125 642.78125 L 717.78125 107.21875 C 717.78125 65.796875 684.203125 32.21875 642.78125 32.21875 L 107.21875 32.21875 C 65.796875 32.21875 32.21875 65.796875 32.21875 107.21875 Z M 32.21875 107.21875 "/></clipPath><clipPath id="340ac4087c"><path d="M 116 171 L 635 171 L 635 541 L 116 541 Z M 116 171 "/></clipPath><clipPath id="3a1186e8cd"><path d="M 32.21875 107.21875 L 32.21875 642.78125 C 32.21875 684.203125 65.796875 717.78125 107.21875 717.78125 L 642.78125 717.78125 C 684.203125 717.78125 717.78125 684.203125 717.78125 642.78125 L 717.78125 107.21875 C 717.78125 65.796875 684.203125 32.21875 642.78125 32.21875 L 107.21875 32.21875 C 65.796875 32.21875 32.21875 65.796875 32.21875 107.21875 Z M 32.21875 107.21875 "/></clipPath></defs><g id="b5fab512c0"><g clip-rule="nonzero" clip-path="url(#7087907823)"><rect x="0" width="750" y="0" height="749.999995" style="fill:#ff401f;fill-opacity:1;stroke:none;"/></g><g clip-rule="nonzero" clip-path="url(#fc1d26015a)"><g clip-rule="nonzero" clip-path="url(#49a313070b)"><path style=" stroke:none;fill-rule:nonzero;fill:#ff401f;fill-opacity:1;" d="M 717.71875 717.71875 L 32.21875 717.71875 L 32.21875 32.21875 L 717.71875 32.21875 Z M 65.332031 684.601562 L 684.601562 684.601562 L 684.601562 65.332031 L 65.332031 65.332031 Z M 65.332031 684.601562 "/></g></g><g clip-rule="nonzero" clip-path="url(#de97704bc9)"><g clip-rule="nonzero" clip-path="url(#e4be5139b5)"><path style=" stroke:none;fill-rule:nonzero;fill:#260600;fill-opacity:1;" d="M 57.386719 57.386719 L 692.550781 57.386719 L 692.550781 692.550781 L 57.386719 692.550781 Z M 57.386719 57.386719 "/></g></g><g clip-rule="nonzero" clip-path="url(#340ac4087c)"><g clip-rule="nonzero" clip-path="url(#3a1186e8cd)"><path style=" stroke:none;fill-rule:nonzero;fill:#ff401f;fill-opacity:1;" d="M 634.929688 540.214844 L 634.929688 340.859375 C 634.929688 280.585938 542.867188 240.1875 427.621094 287.210938 L 427.621094 540.214844 L 495.839844 540.214844 L 495.839844 322.3125 C 531.605469 310.390625 573.332031 315.691406 573.332031 346.15625 L 573.332031 540.214844 Z M 292.507812 171.304688 L 218.328125 171.304688 L 116.332031 536.242188 L 173.292969 539.554688 L 201.109375 436.894531 L 310.390625 436.894531 L 337.546875 539.554688 L 403.117188 539.554688 Z M 215.679688 379.273438 L 254.09375 226.277344 L 294.496094 379.273438 Z M 215.679688 379.273438 "/></g></g></g></svg>