<svg xmlns="http://www.w3.org/2000/svg" xmlns:xlink="http://www.w3.org/1999/xlink" width="1000" zoomAndPan="magnify" viewBox="0 0 750 749.999995" height="1000" preserveAspectRatio="xMidYMid meet" version="1.2"><defs><clipPath id="34c3211d40"><path d="M 46.5 0 L 703.5 0 C 729.179688 0 750 20.820312 750 46.5 L 750 703.5 C 750 729.179688 729.179688 750 703.5 750 L 46.5 750 C 20.820312 750 0 729.179688 0 703.5 L 0 46.5 C 0 20.820312 20.820312 0 46.5 0 Z M 46.5 0 "/></clipPath><clipPath id="ffe213c501"><path d="M 57.648438 122.273438 L 692.148438 122.273438 L 692.148438 627.773438 L 57.648438 627.773438 Z M 57.648438 122.273438 "/></clipPath></defs><g id="16e7fdb791"><g clip-rule="nonzero" clip-path="url(#34c3211d40)"><rect x="0" width="750" y="0" height="749.999995" style="fill:#ffffff;fill-opacity:1;stroke:none;"/></g><g clip-rule="nonzero" clip-path="url(#ffe213c501)"><path style=" stroke:none;fill-rule:evenodd;fill:#7952b3;fill-opacity:1;" d="M 189.492188 122.273438 C 153.300781 122.273438 126.519531 153.964844 127.71875 188.332031 C 128.867188 221.351562 127.375 264.113281 116.613281 298.988281 C 105.8125 333.957031 87.5625 356.121094 57.746094 358.964844 L 57.746094 391.078125 C 87.5625 393.929688 105.8125 416.082031 116.609375 451.058594 C 127.375 485.929688 128.867188 528.695312 127.714844 561.710938 C 126.515625 596.074219 153.296875 627.773438 189.496094 627.773438 L 560.351562 627.773438 C 596.542969 627.773438 623.320312 596.082031 622.121094 561.710938 C 620.96875 528.695312 622.464844 485.929688 633.226562 451.058594 C 644.027344 416.082031 662.230469 393.921875 692.050781 391.078125 L 692.050781 358.964844 C 662.234375 356.113281 644.027344 333.964844 633.226562 298.988281 C 622.464844 264.117188 620.96875 221.351562 622.121094 188.332031 C 623.320312 153.96875 596.542969 122.273438 560.351562 122.273438 L 189.488281 122.273438 Z M 487.78125 433.441406 C 487.78125 480.765625 452.5 509.464844 393.941406 509.464844 L 294.265625 509.464844 C 293.558594 509.464844 292.859375 509.394531 292.167969 509.257812 C 291.476562 509.121094 290.804688 508.914062 290.152344 508.644531 C 289.5 508.375 288.878906 508.042969 288.292969 507.652344 C 287.707031 507.257812 287.160156 506.8125 286.664062 506.3125 C 286.164062 505.816406 285.71875 505.269531 285.324219 504.683594 C 284.933594 504.097656 284.601562 503.476562 284.332031 502.824219 C 284.0625 502.171875 283.859375 501.5 283.71875 500.808594 C 283.582031 500.113281 283.515625 499.414062 283.515625 498.707031 L 283.515625 251.335938 C 283.515625 250.628906 283.582031 249.929688 283.71875 249.238281 C 283.859375 248.546875 284.0625 247.875 284.332031 247.21875 C 284.601562 246.566406 284.933594 245.949219 285.324219 245.359375 C 285.71875 244.773438 286.164062 244.230469 286.664062 243.730469 C 287.160156 243.230469 287.707031 242.785156 288.292969 242.394531 C 288.878906 242 289.5 241.671875 290.152344 241.398438 C 290.804688 241.128906 291.476562 240.925781 292.167969 240.789062 C 292.859375 240.648438 293.558594 240.582031 294.265625 240.582031 L 393.375 240.582031 C 442.199219 240.582031 474.246094 267.039062 474.246094 307.660156 C 474.246094 336.171875 452.6875 361.699219 425.226562 366.171875 L 425.226562 367.65625 C 462.609375 371.761719 487.78125 397.664062 487.78125 433.441406 Z M 383.074219 274.675781 L 326.238281 274.675781 L 326.238281 354.988281 L 374.109375 354.988281 C 411.113281 354.988281 431.519531 340.082031 431.519531 313.433594 C 431.515625 288.464844 413.972656 274.675781 383.074219 274.675781 Z M 326.238281 386.851562 L 326.238281 475.359375 L 385.164062 475.359375 C 423.695312 475.359375 444.101562 459.890625 444.101562 430.828125 C 444.101562 401.761719 423.121094 386.847656 382.6875 386.847656 L 326.238281 386.847656 Z M 326.238281 386.851562 "/></g></g></svg>