<svg xmlns="http://www.w3.org/2000/svg" xmlns:xlink="http://www.w3.org/1999/xlink" width="1000" zoomAndPan="magnify" viewBox="0 0 750 749.999995" height="1000" preserveAspectRatio="xMidYMid meet" version="1.2"><defs><clipPath id="96f6cf518c"><path d="M 46.5 0 L 703.5 0 C 729.179688 0 750 20.820312 750 46.5 L 750 703.5 C 750 729.179688 729.179688 750 703.5 750 L 46.5 750 C 20.820312 750 0 729.179688 0 703.5 L 0 46.5 C 0 20.820312 20.820312 0 46.5 0 Z M 46.5 0 "/></clipPath><clipPath id="baf95f405e"><path d="M 97.027344 169 L 652.777344 169 L 652.777344 581 L 97.027344 581 Z M 97.027344 169 "/></clipPath><clipPath id="0b72035ebf"><path d="M 97.027344 169 L 652.777344 169 L 652.777344 581 L 97.027344 581 Z M 97.027344 169 "/></clipPath></defs><g id="bae24f8bd6"><g clip-rule="nonzero" clip-path="url(#96f6cf518c)"><rect x="0" width="750" y="0" height="749.999995" style="fill:#ffffff;fill-opacity:1;stroke:none;"/></g><g clip-rule="nonzero" clip-path="url(#baf95f405e)"><path style=" stroke:none;fill-rule:nonzero;fill:#ffffff;fill-opacity:1;" d="M 97.296875 236.285156 C 97.066406 253.109375 97.296875 269.96875 97.296875 286.789062 C 97.300781 287.773438 97.445312 288.742188 97.730469 289.683594 C 98.015625 290.628906 98.429688 291.511719 98.96875 292.339844 C 99.507812 293.164062 100.15625 293.894531 100.90625 294.53125 C 101.660156 295.171875 102.484375 295.6875 103.386719 296.085938 C 156.292969 322.425781 209.269531 348.671875 262.328125 374.828125 C 209.734375 400.679688 157.332031 426.875 104.816406 452.839844 C 103.800781 453.164062 102.851562 453.621094 101.96875 454.214844 C 101.085938 454.808594 100.304688 455.515625 99.621094 456.332031 C 98.9375 457.148438 98.382812 458.042969 97.953125 459.015625 C 97.527344 459.992188 97.242188 461.003906 97.101562 462.0625 L 97.101562 512.679688 C 97.3125 514.75 97.609375 516.8125 97.992188 518.859375 C 98.375 520.910156 98.839844 522.9375 99.386719 524.949219 C 99.9375 526.957031 100.566406 528.941406 101.28125 530.898438 C 101.992188 532.855469 102.785156 534.78125 103.65625 536.671875 C 104.53125 538.566406 105.476562 540.417969 106.503906 542.230469 C 107.527344 544.046875 108.625 545.8125 109.796875 547.535156 C 110.96875 549.257812 112.207031 550.929688 113.515625 552.550781 C 114.828125 554.171875 116.199219 555.734375 117.636719 557.242188 C 119.078125 558.75 120.574219 560.191406 122.132812 561.574219 C 123.691406 562.957031 125.300781 564.273438 126.96875 565.523438 C 128.632812 566.773438 130.351562 567.953125 132.113281 569.058594 C 133.878906 570.167969 135.683594 571.199219 137.53125 572.160156 C 139.382812 573.117188 141.265625 573.996094 143.1875 574.800781 C 145.109375 575.601562 147.0625 576.324219 149.042969 576.964844 C 151.023438 577.605469 153.03125 578.164062 155.058594 578.636719 C 157.085938 579.113281 159.128906 579.503906 161.1875 579.808594 C 167.820312 580.425781 174.453125 580.3125 181.085938 580.3125 L 475.597656 580.3125 C 482.738281 580.625 489.808594 580.042969 496.804688 578.574219 C 499.398438 577.945312 501.957031 577.179688 504.472656 576.285156 C 506.988281 575.386719 509.449219 574.363281 511.859375 573.210938 C 514.269531 572.058594 516.613281 570.78125 518.890625 569.386719 C 521.167969 567.992188 523.367188 566.480469 525.484375 564.855469 C 527.605469 563.230469 529.636719 561.5 531.578125 559.664062 C 533.519531 557.828125 535.359375 555.898438 537.097656 553.871094 C 538.839844 551.84375 540.46875 549.730469 541.988281 547.535156 C 543.511719 545.339844 544.914062 543.070312 546.199219 540.726562 C 549.5625 533.90625 552.261719 526.832031 554.296875 519.507812 C 584.527344 535.25 615.414062 549.910156 645.875 565.226562 C 646.527344 565.707031 647.253906 565.984375 648.0625 566.050781 C 648.871094 566.117188 649.636719 565.96875 650.359375 565.601562 C 651.082031 565.230469 651.652344 564.703125 652.074219 564.007812 C 652.496094 563.316406 652.703125 562.5625 652.699219 561.753906 L 652.699219 509.4375 C 652.632812 508.574219 652.445312 507.738281 652.136719 506.933594 C 651.828125 506.125 651.410156 505.378906 650.882812 504.691406 C 650.355469 504.007812 649.738281 503.410156 649.039062 502.90625 C 648.335938 502.398438 647.578125 502.003906 646.761719 501.722656 L 391.039062 374.828125 C 476.457031 332.417969 561.890625 289.976562 647.339844 247.511719 C 648.097656 247.1875 648.792969 246.757812 649.425781 246.230469 C 650.058594 245.707031 650.609375 245.101562 651.070312 244.417969 C 651.53125 243.734375 651.886719 243 652.136719 242.210938 C 652.386719 241.425781 652.523438 240.621094 652.542969 239.796875 L 652.542969 187.558594 C 652.503906 187.230469 652.421875 186.914062 652.304688 186.605469 C 652.1875 186.300781 652.035156 186.011719 651.847656 185.738281 C 651.660156 185.46875 651.441406 185.222656 651.195312 185.003906 C 650.949219 184.785156 650.683594 184.597656 650.390625 184.441406 C 650.101562 184.289062 649.796875 184.171875 649.476562 184.089844 C 649.160156 184.007812 648.835938 183.964844 648.503906 183.960938 C 648.175781 183.957031 647.851562 183.988281 647.53125 184.0625 C 647.207031 184.136719 646.902344 184.246094 646.605469 184.394531 L 553.757812 230.460938 C 551.578125 220.269531 547.554688 210.871094 541.6875 202.257812 C 540.082031 199.925781 538.347656 197.6875 536.492188 195.542969 C 534.636719 193.402344 532.671875 191.371094 530.589844 189.445312 C 528.511719 187.523438 526.332031 185.71875 524.050781 184.035156 C 521.769531 182.355469 519.40625 180.804688 516.953125 179.382812 C 514.503906 177.964844 511.980469 176.683594 509.386719 175.542969 C 506.792969 174.402344 504.144531 173.40625 501.441406 172.5625 C 498.738281 171.714844 496 171.019531 493.21875 170.476562 C 490.4375 169.929688 487.636719 169.542969 484.8125 169.308594 L 168.976562 169.308594 C 166.753906 169.414062 164.542969 169.613281 162.339844 169.914062 C 160.132812 170.210938 157.949219 170.605469 155.777344 171.097656 C 153.609375 171.589844 151.464844 172.175781 149.347656 172.855469 C 147.230469 173.535156 145.144531 174.308594 143.097656 175.171875 C 141.046875 176.035156 139.039062 176.988281 137.074219 178.03125 C 135.109375 179.070312 133.191406 180.195312 131.324219 181.40625 C 129.457031 182.617188 127.648438 183.90625 125.894531 185.277344 C 124.144531 186.648438 122.453125 188.09375 120.828125 189.609375 C 119.203125 191.128906 117.648438 192.71875 116.160156 194.375 C 114.675781 196.03125 113.265625 197.746094 111.929688 199.527344 C 110.597656 201.308594 109.34375 203.144531 108.171875 205.035156 C 107 206.925781 105.910156 208.867188 104.910156 210.851562 C 103.90625 212.839844 102.996094 214.867188 102.171875 216.933594 C 101.347656 219 100.617188 221.101562 99.980469 223.234375 C 99.34375 225.363281 98.796875 227.519531 98.351562 229.699219 C 97.902344 231.878906 97.550781 234.074219 97.296875 236.285156 Z M 97.296875 236.285156 "/></g><path style=" stroke:none;fill-rule:nonzero;fill:#ffffff;fill-opacity:1;" d="M 155.789062 236.632812 C 156.195312 235.824219 156.65625 235.046875 157.175781 234.304688 C 157.691406 233.558594 158.257812 232.855469 158.875 232.195312 C 159.492188 231.53125 160.15625 230.914062 160.859375 230.347656 C 161.566406 229.777344 162.304688 229.261719 163.085938 228.800781 C 163.863281 228.339844 164.671875 227.933594 165.507812 227.585938 C 166.34375 227.238281 167.199219 226.953125 168.078125 226.726562 C 168.953125 226.5 169.84375 226.339844 170.742188 226.242188 C 171.640625 226.144531 172.542969 226.109375 173.449219 226.140625 L 478.722656 226.140625 C 479.878906 226.128906 481.027344 226.21875 482.167969 226.414062 C 483.308594 226.609375 484.421875 226.90625 485.511719 227.300781 C 486.597656 227.695312 487.640625 228.183594 488.640625 228.769531 C 489.640625 229.351562 490.578125 230.019531 491.457031 230.773438 C 492.339844 231.527344 493.144531 232.351562 493.875 233.25 C 494.605469 234.148438 495.25 235.105469 495.808594 236.117188 C 496.367188 237.132812 496.828125 238.1875 497.199219 239.285156 C 497.566406 240.382812 497.832031 241.507812 498 242.652344 C 498.386719 247.785156 498.191406 252.914062 498 258.085938 L 326.796875 342.960938 C 268.960938 314.566406 211.46875 285.824219 153.824219 257.234375 C 154.09375 250.367188 152.628906 243 155.789062 236.632812 Z M 153.824219 492.65625 C 211.300781 463.976562 268.84375 435.414062 326.453125 406.96875 C 383.75 434.898438 440.816406 463.605469 498.039062 491.84375 C 497.652344 499.253906 499.464844 507.277344 495.570312 514.105469 C 494.730469 515.578125 493.714844 516.910156 492.519531 518.109375 C 491.324219 519.308594 489.992188 520.332031 488.527344 521.175781 C 487.058594 522.019531 485.507812 522.65625 483.871094 523.089844 C 482.230469 523.519531 480.566406 523.726562 478.875 523.710938 L 173.488281 523.710938 C 172.597656 523.738281 171.707031 523.699219 170.820312 523.601562 C 169.933594 523.5 169.058594 523.339844 168.191406 523.121094 C 167.328125 522.898438 166.484375 522.617188 165.65625 522.28125 C 164.832031 521.941406 164.035156 521.546875 163.261719 521.097656 C 162.492188 520.648438 161.753906 520.148438 161.054688 519.597656 C 160.351562 519.046875 159.691406 518.449219 159.074219 517.804688 C 158.453125 517.160156 157.882812 516.476562 157.359375 515.753906 C 156.835938 515.03125 156.363281 514.277344 155.945312 513.488281 C 152.550781 507.085938 154.09375 499.601562 153.824219 492.65625 Z M 153.824219 492.65625 "/><g clip-rule="nonzero" clip-path="url(#0b72035ebf)"><path style=" stroke:none;fill-rule:nonzero;fill:#000000;fill-opacity:1;" d="M 97.296875 236.285156 C 97.546875 234.070312 97.894531 231.875 98.34375 229.691406 C 98.789062 227.507812 99.328125 225.347656 99.964844 223.210938 C 100.601562 221.078125 101.332031 218.972656 102.152344 216.902344 C 102.972656 214.832031 103.886719 212.800781 104.886719 210.808594 C 105.886719 208.820312 106.972656 206.875 108.148438 204.980469 C 109.320312 203.085938 110.574219 201.246094 111.90625 199.464844 C 113.242188 197.679688 114.652344 195.957031 116.140625 194.296875 C 117.625 192.640625 119.183594 191.046875 120.808594 189.527344 C 122.4375 188.003906 124.125 186.558594 125.878906 185.183594 C 127.636719 183.8125 129.445312 182.519531 131.316406 181.308594 C 133.183594 180.09375 135.101562 178.96875 137.070312 177.925781 C 139.039062 176.882812 141.046875 175.925781 143.101562 175.0625 C 145.152344 174.195312 147.238281 173.421875 149.359375 172.742188 C 151.480469 172.058594 153.625 171.472656 155.796875 170.980469 C 157.972656 170.488281 160.160156 170.09375 162.367188 169.796875 C 164.574219 169.496094 166.789062 169.296875 169.015625 169.195312 L 484.96875 169.195312 C 487.789062 169.425781 490.59375 169.816406 493.371094 170.359375 C 496.152344 170.902344 498.894531 171.597656 501.597656 172.445312 C 504.300781 173.292969 506.949219 174.285156 509.542969 175.425781 C 512.136719 176.566406 514.65625 177.847656 517.109375 179.269531 C 519.558594 180.6875 521.925781 182.238281 524.207031 183.921875 C 526.484375 185.605469 528.664062 187.40625 530.746094 189.332031 C 532.824219 191.253906 534.792969 193.289062 536.648438 195.429688 C 538.503906 197.570312 540.234375 199.808594 541.84375 202.140625 C 547.707031 210.753906 551.730469 220.152344 553.910156 230.34375 L 646.761719 184.28125 C 647.054688 184.132812 647.363281 184.023438 647.683594 183.949219 C 648.003906 183.875 648.328125 183.839844 648.660156 183.84375 C 648.988281 183.847656 649.3125 183.890625 649.632812 183.972656 C 649.949219 184.054688 650.253906 184.171875 650.546875 184.328125 C 650.835938 184.480469 651.105469 184.667969 651.351562 184.886719 C 651.597656 185.109375 651.8125 185.351562 652 185.625 C 652.1875 185.894531 652.339844 186.183594 652.457031 186.492188 C 652.578125 186.800781 652.65625 187.117188 652.699219 187.441406 L 652.699219 239.679688 C 652.71875 240.554688 652.605469 241.410156 652.367188 242.25 C 652.125 243.089844 651.765625 243.871094 651.285156 244.601562 C 650.808594 245.332031 650.234375 245.976562 649.558594 246.53125 C 648.886719 247.085938 648.144531 247.53125 647.339844 247.859375 C 561.917969 290.246094 476.484375 332.6875 391.039062 375.175781 L 646.761719 501.761719 C 647.578125 502.042969 648.335938 502.4375 649.039062 502.945312 C 649.738281 503.449219 650.355469 504.046875 650.882812 504.730469 C 651.410156 505.414062 651.828125 506.164062 652.136719 506.96875 C 652.445312 507.777344 652.632812 508.613281 652.699219 509.476562 L 652.699219 561.792969 C 652.703125 562.601562 652.496094 563.355469 652.074219 564.046875 C 651.652344 564.742188 651.082031 565.269531 650.359375 565.636719 C 649.636719 566.003906 648.871094 566.15625 648.0625 566.089844 C 647.253906 566.019531 646.527344 565.746094 645.875 565.265625 C 615.414062 549.832031 584.527344 535.285156 554.296875 519.546875 C 552.261719 526.871094 549.5625 533.945312 546.199219 540.765625 C 544.921875 543.117188 543.527344 545.394531 542.011719 547.601562 C 540.5 549.804688 538.875 551.929688 537.140625 553.964844 C 535.40625 556 533.570312 557.941406 531.632812 559.789062 C 529.699219 561.632812 527.671875 563.375 525.554688 565.007812 C 523.4375 566.644531 521.242188 568.164062 518.964844 569.570312 C 516.691406 570.976562 514.347656 572.261719 511.941406 573.421875 C 509.53125 574.585938 507.066406 575.621094 504.550781 576.527344 C 502.035156 577.433594 499.480469 578.203125 496.882812 578.84375 C 489.886719 580.316406 482.816406 580.894531 475.675781 580.582031 L 181.199219 580.582031 C 174.566406 580.582031 167.898438 580.582031 161.304688 580.078125 C 159.242188 579.769531 157.199219 579.378906 155.171875 578.898438 C 153.144531 578.421875 151.140625 577.859375 149.160156 577.21875 C 147.175781 576.574219 145.226562 575.847656 143.304688 575.042969 C 141.382812 574.238281 139.496094 573.355469 137.648438 572.394531 C 135.800781 571.433594 133.996094 570.398438 132.230469 569.289062 C 130.46875 568.175781 128.753906 566.996094 127.089844 565.742188 C 125.425781 564.492188 123.8125 563.171875 122.257812 561.789062 C 120.699219 560.402344 119.203125 558.953125 117.769531 557.445312 C 116.332031 555.9375 114.960938 554.371094 113.652344 552.746094 C 112.34375 551.125 111.105469 549.449219 109.9375 547.722656 C 108.769531 546 107.671875 544.230469 106.652344 542.414062 C 105.628906 540.597656 104.683594 538.742188 103.8125 536.847656 C 102.945312 534.953125 102.152344 533.027344 101.445312 531.066406 C 100.734375 529.105469 100.105469 527.121094 99.558594 525.109375 C 99.015625 523.097656 98.550781 521.066406 98.175781 519.019531 C 97.796875 516.96875 97.503906 514.90625 97.296875 512.832031 L 97.296875 462.214844 C 97.4375 461.160156 97.71875 460.144531 98.148438 459.171875 C 98.574219 458.195312 99.132812 457.300781 99.8125 456.484375 C 100.496094 455.667969 101.28125 454.964844 102.164062 454.371094 C 103.046875 453.777344 103.996094 453.316406 105.007812 452.996094 C 157.523438 427.03125 209.925781 400.832031 262.519531 374.984375 C 209.539062 348.59375 156.523438 322.28125 103.464844 296.046875 C 102.5625 295.648438 101.738281 295.132812 100.984375 294.492188 C 100.230469 293.855469 99.585938 293.125 99.046875 292.300781 C 98.503906 291.476562 98.09375 290.589844 97.808594 289.644531 C 97.523438 288.703125 97.378906 287.734375 97.371094 286.75 C 97.296875 269.96875 97.027344 253.109375 97.296875 236.285156 Z M 155.828125 236.632812 C 152.667969 243 154.132812 250.367188 153.863281 257.234375 C 211.699219 285.824219 269.113281 314.566406 326.835938 342.960938 C 383.878906 314.667969 440.945312 286.378906 498.039062 258.085938 C 498.039062 252.953125 498.269531 247.820312 498.039062 242.652344 C 497.871094 241.507812 497.605469 240.382812 497.238281 239.285156 C 496.867188 238.1875 496.40625 237.132812 495.847656 236.117188 C 495.289062 235.105469 494.644531 234.148438 493.914062 233.25 C 493.179688 232.351562 492.375 231.527344 491.496094 230.773438 C 490.617188 230.019531 489.679688 229.351562 488.679688 228.769531 C 487.679688 228.183594 486.636719 227.695312 485.550781 227.300781 C 484.460938 226.90625 483.347656 226.609375 482.207031 226.414062 C 481.066406 226.21875 479.917969 226.128906 478.757812 226.140625 L 173.449219 226.140625 C 172.542969 226.109375 171.640625 226.144531 170.742188 226.242188 C 169.84375 226.339844 168.953125 226.5 168.078125 226.726562 C 167.199219 226.953125 166.34375 227.238281 165.507812 227.585938 C 164.671875 227.933594 163.863281 228.339844 163.085938 228.800781 C 162.304688 229.261719 161.566406 229.777344 160.859375 230.347656 C 160.15625 230.914062 159.492188 231.53125 158.875 232.195312 C 158.257812 232.855469 157.691406 233.558594 157.175781 234.304688 C 156.65625 235.046875 156.195312 235.824219 155.789062 236.632812 Z M 153.863281 492.65625 C 154.132812 499.601562 152.628906 507.085938 155.984375 513.527344 C 156.402344 514.316406 156.875 515.070312 157.398438 515.792969 C 157.921875 516.515625 158.492188 517.199219 159.109375 517.84375 C 159.730469 518.488281 160.390625 519.085938 161.089844 519.636719 C 161.792969 520.1875 162.53125 520.6875 163.300781 521.136719 C 164.070312 521.585938 164.871094 521.980469 165.695312 522.320312 C 166.523438 522.65625 167.367188 522.9375 168.230469 523.15625 C 169.097656 523.378906 169.972656 523.539062 170.859375 523.636719 C 171.746094 523.738281 172.636719 523.777344 173.527344 523.75 L 479.03125 523.75 C 480.722656 523.765625 482.386719 523.558594 484.023438 523.125 C 485.660156 522.695312 487.214844 522.058594 488.679688 521.214844 C 490.148438 520.371094 491.480469 519.347656 492.671875 518.148438 C 493.867188 516.949219 494.886719 515.617188 495.726562 514.144531 C 499.582031 507.394531 497.808594 499.292969 498.191406 491.882812 C 441.011719 463.640625 383.90625 434.9375 326.605469 407.007812 C 268.84375 435.554688 211.25 464.105469 153.824219 492.65625 Z M 153.863281 492.65625 "/></g></g></svg>