<svg xmlns="http://www.w3.org/2000/svg" xmlns:xlink="http://www.w3.org/1999/xlink" width="1000" zoomAndPan="magnify" viewBox="0 0 750 749.999995" height="1000" preserveAspectRatio="xMidYMid meet" version="1.2"><defs><clipPath id="4bc35b4a74"><path d="M 47.726562 1 L 702.476562 1 L 702.476562 749 L 47.726562 749 Z M 47.726562 1 "/></clipPath></defs><g id="209bf92207"><g clip-rule="nonzero" clip-path="url(#4bc35b4a74)"><path style=" stroke:none;fill-rule:nonzero;fill:#e34f26;fill-opacity:1;" d="M 102.550781 671.273438 L 47.726562 1.457031 L 702.476562 2.804688 L 644.503906 671.273438 L 377.574219 748.542969 Z M 102.550781 671.273438 "/></g><path style=" stroke:none;fill-rule:nonzero;fill:#ef652a;fill-opacity:1;" d="M 377.574219 683.851562 L 377.574219 65.25 L 647.203125 66.148438 L 599.121094 619.609375 Z M 377.574219 683.851562 "/><path style=" stroke:none;fill-rule:nonzero;fill:#ffffff;fill-opacity:1;" d="M 573.058594 219.789062 L 580.695312 138.023438 L 165.914062 138.023438 L 188.832031 388.703125 L 475.089844 388.703125 L 463.863281 495.621094 L 372.1875 520.324219 L 279.164062 493.371094 L 274.222656 429.578125 L 191.976562 429.578125 L 203.214844 559.859375 L 372.183594 607.027344 L 542.496094 559.859375 L 565.414062 305.59375 L 264.78125 305.59375 L 256.242188 219.789062 Z M 573.058594 219.789062 "/></g></svg>