<svg xmlns="http://www.w3.org/2000/svg" xmlns:xlink="http://www.w3.org/1999/xlink" width="1000" zoomAndPan="magnify" viewBox="0 0 750 749.999995" height="1000" preserveAspectRatio="xMidYMid meet" version="1.2"><defs><clipPath id="837e089065"><path d="M 46.5 0 L 703.5 0 C 729.179688 0 750 20.820312 750 46.5 L 750 703.5 C 750 729.179688 729.179688 750 703.5 750 L 46.5 750 C 20.820312 750 0 729.179688 0 703.5 L 0 46.5 C 0 20.820312 20.820312 0 46.5 0 Z M 46.5 0 "/></clipPath><clipPath id="1bc4e7dc6e"><path d="M 228 82.632812 L 667.632812 82.632812 L 667.632812 667.632812 L 228 667.632812 Z M 228 82.632812 "/></clipPath><clipPath id="19a2736bb3"><path d="M 521 375 L 667.632812 375 L 667.632812 667.632812 L 521 667.632812 Z M 521 375 "/></clipPath><clipPath id="958c355979"><path d="M 82.632812 82.632812 L 376 82.632812 L 376 667.632812 L 82.632812 667.632812 Z M 82.632812 82.632812 "/></clipPath></defs><g id="a4f72dad82"><g clip-rule="nonzero" clip-path="url(#837e089065)"><rect x="0" width="750" y="0" height="749.999995" style="fill:#ffffff;fill-opacity:1;stroke:none;"/></g><g clip-rule="nonzero" clip-path="url(#1bc4e7dc6e)"><path style=" stroke:none;fill-rule:nonzero;fill:#59529d;fill-opacity:1;" d="M 667.632812 82.632812 L 667.632812 375.132812 L 375.132812 667.632812 L 228.882812 521.382812 L 375.132812 375.132812 L 375.132812 376.472656 L 375.132812 375.132812 Z M 667.632812 82.632812 "/></g><g clip-rule="nonzero" clip-path="url(#19a2736bb3)"><path style=" stroke:none;fill-rule:nonzero;fill:#5271b4;fill-opacity:1;" d="M 667.632812 375.132812 L 667.632812 667.632812 L 521.382812 521.382812 Z M 667.632812 375.132812 "/></g><g clip-rule="nonzero" clip-path="url(#958c355979)"><path style=" stroke:none;fill-rule:nonzero;fill:#bb4b96;fill-opacity:1;" d="M 375.132812 375.132812 L 82.632812 667.632812 L 82.632812 82.632812 Z M 375.132812 375.132812 "/></g></g></svg>