<svg xmlns="http://www.w3.org/2000/svg" xmlns:xlink="http://www.w3.org/1999/xlink" width="1000" zoomAndPan="magnify" viewBox="0 0 750 749.999995" height="1000" preserveAspectRatio="xMidYMid meet" version="1.2"><defs><clipPath id="38580965b0"><path d="M 47.726562 1 L 702.476562 1 L 702.476562 749 L 47.726562 749 Z M 47.726562 1 "/></clipPath></defs><g id="55c701e17b"><g clip-rule="nonzero" clip-path="url(#38580965b0)"><path style=" stroke:none;fill-rule:nonzero;fill:#1b73ba;fill-opacity:1;" d="M 102.550781 671.269531 L 47.726562 1.464844 L 702.476562 2.808594 L 644.503906 671.269531 L 377.574219 748.535156 Z M 102.550781 671.269531 "/></g><path style=" stroke:none;fill-rule:nonzero;fill:#1c88c7;fill-opacity:1;" d="M 377.574219 683.847656 L 377.574219 65.253906 L 647.203125 66.152344 L 599.121094 619.609375 Z M 377.574219 683.847656 "/><path style=" stroke:none;fill-rule:nonzero;fill:#ffffff;fill-opacity:1;" d="M 580.246094 144.324219 L 165.464844 144.324219 L 176.703125 225.179688 L 373.527344 225.179688 L 179.847656 308.289062 L 191.082031 386.453125 L 476.441406 386.453125 L 466.101562 495.613281 L 369.484375 514.484375 L 281.859375 492.023438 L 275.117188 430.027344 L 194.675781 430.027344 L 205.457031 558.960938 L 378.023438 607.027344 L 543.398438 554.46875 L 564.519531 302.445312 L 389.703125 302.445312 L 580.238281 223.382812 Z M 580.246094 144.324219 "/></g></svg>