<svg xmlns="http://www.w3.org/2000/svg" xmlns:xlink="http://www.w3.org/1999/xlink" width="1000" zoomAndPan="magnify" viewBox="0 0 750 749.999995" height="1000" preserveAspectRatio="xMidYMid meet" version="1.2"><defs><clipPath id="d3e28426cc"><path d="M 46.5 0 L 703.5 0 C 729.179688 0 750 20.820312 750 46.5 L 750 703.5 C 750 729.179688 729.179688 750 703.5 750 L 46.5 750 C 20.820312 750 0 729.179688 0 703.5 L 0 46.5 C 0 20.820312 20.820312 0 46.5 0 Z M 46.5 0 "/></clipPath><clipPath id="f783d1d96f"><path d="M 19.40625 28.457031 L 730.40625 28.457031 L 730.40625 721.457031 L 19.40625 721.457031 Z M 19.40625 28.457031 "/></clipPath></defs><g id="8e677c2972"><g clip-rule="nonzero" clip-path="url(#d3e28426cc)"><rect x="0" width="750" y="0" height="749.999995" style="fill:#330000;fill-opacity:1;stroke:none;"/></g><g clip-rule="nonzero" clip-path="url(#f783d1d96f)"><path style=" stroke:none;fill-rule:nonzero;fill:#330000;fill-opacity:1;" d="M 145.417969 28.457031 L 604.394531 28.457031 C 673.984375 28.457031 730.246094 84.726562 730.246094 154.324219 L 730.246094 595.59375 C 730.246094 665.1875 673.984375 721.457031 604.394531 721.457031 L 145.417969 721.457031 C 75.828125 721.457031 19.566406 665.1875 19.566406 595.59375 L 19.566406 154.324219 C 19.566406 84.726562 75.828125 28.457031 145.417969 28.457031 Z M 145.417969 28.457031 "/></g><path style=" stroke:none;fill-rule:nonzero;fill:#ff9a00;fill-opacity:1;" d="M 363.949219 444.257812 L 253.796875 444.257812 L 231.289062 513.855469 C 230.699219 516.519531 228.328125 518.296875 225.664062 518 L 169.996094 518 C 166.738281 518 165.847656 516.222656 166.738281 512.667969 L 262.085938 238.136719 C 262.976562 235.171875 263.863281 231.914062 265.046875 228.363281 C 266.230469 222.144531 266.824219 215.628906 266.824219 209.113281 C 266.527344 207.632812 267.710938 206.152344 269.195312 205.855469 L 345.886719 205.855469 C 348.257812 205.855469 349.441406 206.742188 349.738281 208.222656 L 457.820312 513.261719 C 458.707031 516.519531 457.820312 518 454.859375 518 L 392.96875 518 C 390.898438 518.296875 388.824219 516.816406 388.230469 514.742188 Z M 270.96875 384.140625 L 346.183594 384.140625 C 344.40625 377.917969 342.039062 370.515625 339.371094 362.816406 C 336.707031 354.820312 334.042969 346.230469 331.378906 337.347656 C 328.417969 328.164062 325.75 319.28125 322.789062 310.101562 C 319.828125 300.917969 317.164062 292.332031 314.796875 283.742188 C 312.425781 275.449219 310.355469 267.75 308.28125 260.644531 L 307.6875 260.644531 C 305.023438 273.378906 301.765625 286.113281 297.621094 298.847656 C 293.179688 313.0625 288.738281 327.871094 284 342.675781 C 279.855469 357.78125 275.410156 371.699219 270.96875 384.140625 Z M 522.371094 256.496094 C 512.601562 256.792969 503.125 252.941406 496.019531 246.132812 C 489.207031 238.726562 485.652344 228.953125 485.949219 218.886719 C 485.652344 208.816406 489.503906 199.339844 496.609375 192.527344 C 503.71875 185.714844 513.191406 182.164062 522.964844 182.164062 C 534.511719 182.164062 543.398438 185.714844 549.910156 192.527344 C 556.425781 199.636719 559.980469 209.113281 559.683594 218.886719 C 559.980469 228.953125 556.425781 238.726562 549.320312 246.132812 C 542.507812 253.238281 532.441406 257.089844 522.371094 256.496094 Z M 489.207031 513.558594 L 489.207031 285.519531 C 489.207031 282.558594 490.390625 281.375 493.058594 281.375 L 551.6875 281.375 C 554.351562 281.375 555.539062 282.855469 555.539062 285.519531 L 555.539062 513.558594 C 555.539062 516.816406 554.351562 518.296875 551.6875 518.296875 L 493.648438 518.296875 C 490.6875 518.296875 489.207031 516.519531 489.207031 513.558594 Z M 489.207031 513.558594 "/></g></svg>