<svg xmlns="http://www.w3.org/2000/svg" xmlns:xlink="http://www.w3.org/1999/xlink" width="1000" zoomAndPan="magnify" viewBox="0 0 750 749.999995" height="1000" preserveAspectRatio="xMidYMid meet" version="1.2"><defs><clipPath id="af193b9990"><path d="M 47.726562 1 L 702.476562 1 L 702.476562 749 L 47.726562 749 Z M 47.726562 1 "/></clipPath></defs><g id="6b8fb49971"><g clip-rule="nonzero" clip-path="url(#af193b9990)"><path style=" stroke:none;fill-rule:nonzero;fill:#e9ca32;fill-opacity:1;" d="M 102.550781 671.273438 L 47.726562 1.457031 L 702.476562 2.804688 L 644.503906 671.273438 L 377.574219 748.542969 Z M 102.550781 671.273438 "/></g><path style=" stroke:none;fill-rule:nonzero;fill:#ffde25;fill-opacity:1;" d="M 377.574219 683.851562 L 377.574219 65.25 L 647.203125 66.148438 L 599.121094 619.609375 Z M 377.574219 683.851562 "/><path style=" stroke:none;fill-rule:nonzero;fill:#ffffff;fill-opacity:1;" d="M 348.699219 138.699219 L 277.417969 138.699219 L 277.417969 550.425781 L 221.976562 539.871094 L 221.976562 484.445312 L 155.972656 473.886719 L 155.972656 597.933594 L 348.699219 648.078125 Z M 402.175781 138.699219 L 599.511719 138.699219 L 586.3125 217.613281 L 477.507812 217.613281 L 477.507812 347.113281 L 586.3125 347.113281 L 573.113281 608.492188 L 402.175781 648.078125 L 402.175781 566.261719 L 517.667969 526.671875 L 524.335938 418.464844 L 402.175781 436.148438 Z M 402.175781 138.699219 "/></g></svg>