<svg xmlns="http://www.w3.org/2000/svg" xmlns:xlink="http://www.w3.org/1999/xlink" width="1000" zoomAndPan="magnify" viewBox="0 0 750 749.999995" height="1000" preserveAspectRatio="xMidYMid meet" version="1.2"><defs><clipPath id="90b68c6cc6"><path d="M 46.5 0 L 703.5 0 C 729.179688 0 750 20.820312 750 46.5 L 750 703.5 C 750 729.179688 729.179688 750 703.5 750 L 46.5 750 C 20.820312 750 0 729.179688 0 703.5 L 0 46.5 C 0 20.820312 20.820312 0 46.5 0 Z M 46.5 0 "/></clipPath></defs><g id="608bb48585"><g clip-rule="nonzero" clip-path="url(#90b68c6cc6)"><rect x="0" width="750" y="0" height="749.999995" style="fill:#ffffff;fill-opacity:1;stroke:none;"/></g><path style=" stroke:none;fill-rule:nonzero;fill:#ff2d20;fill-opacity:1;" d="M 686.863281 198.683594 C 687.097656 199.546875 687.214844 200.425781 687.214844 201.316406 L 687.214844 339.542969 C 687.214844 340.433594 687.101562 341.304688 686.871094 342.160156 C 686.640625 343.015625 686.304688 343.828125 685.859375 344.597656 C 685.414062 345.363281 684.875 346.0625 684.25 346.6875 C 683.621094 347.3125 682.921875 347.847656 682.148438 348.289062 L 566.101562 415.082031 L 566.101562 547.476562 C 566.101562 551.082031 564.183594 554.40625 561.058594 556.21875 L 318.816406 695.632812 C 318.261719 695.945312 317.65625 696.148438 317.050781 696.363281 C 316.824219 696.4375 316.613281 696.578125 316.371094 696.640625 C 314.648438 697.09375 312.925781 697.09375 311.207031 696.640625 C 310.929688 696.5625 310.675781 696.414062 310.410156 696.3125 C 309.855469 696.109375 309.277344 695.933594 308.746094 695.632812 L 66.554688 556.21875 C 65.785156 555.777344 65.085938 555.246094 64.457031 554.617188 C 63.828125 553.992188 63.292969 553.296875 62.847656 552.527344 C 62.402344 551.761719 62.066406 550.949219 61.835938 550.09375 C 61.605469 549.234375 61.488281 548.363281 61.488281 547.476562 L 61.488281 132.796875 C 61.488281 131.890625 61.613281 131.007812 61.84375 130.152344 C 61.917969 129.859375 62.09375 129.597656 62.195312 129.308594 C 62.382812 128.777344 62.558594 128.234375 62.835938 127.746094 C 63.027344 127.417969 63.304688 127.152344 63.53125 126.851562 C 63.820312 126.445312 64.085938 126.03125 64.425781 125.679688 C 64.714844 125.390625 65.09375 125.175781 65.421875 124.921875 C 65.785156 124.621094 66.113281 124.292969 66.53125 124.054688 L 66.542969 124.054688 L 187.644531 54.347656 C 188.410156 53.90625 189.222656 53.570312 190.078125 53.34375 C 190.933594 53.117188 191.800781 53 192.6875 53 C 193.570312 53 194.441406 53.117188 195.292969 53.34375 C 196.148438 53.570312 196.960938 53.90625 197.726562 54.347656 L 318.828125 124.054688 L 318.855469 124.054688 C 319.257812 124.304688 319.597656 124.621094 319.964844 124.910156 C 320.292969 125.160156 320.65625 125.390625 320.945312 125.664062 C 321.300781 126.03125 321.550781 126.445312 321.855469 126.851562 C 322.066406 127.152344 322.359375 127.417969 322.535156 127.746094 C 322.824219 128.25 322.988281 128.777344 323.191406 129.308594 C 323.289062 129.597656 323.464844 129.859375 323.542969 130.164062 C 323.777344 131.027344 323.894531 131.902344 323.894531 132.796875 L 323.894531 391.800781 L 424.808594 333.710938 L 424.808594 201.304688 C 424.808594 200.421875 424.9375 199.527344 425.164062 198.683594 C 425.25 198.382812 425.414062 198.117188 425.515625 197.828125 C 425.71875 197.300781 425.894531 196.757812 426.171875 196.265625 C 426.359375 195.9375 426.636719 195.675781 426.851562 195.371094 C 427.152344 194.96875 427.40625 194.550781 427.757812 194.199219 C 428.046875 193.910156 428.414062 193.695312 428.742188 193.445312 C 429.121094 193.140625 429.449219 192.8125 429.851562 192.574219 L 429.863281 192.574219 L 550.980469 122.867188 C 551.746094 122.425781 552.554688 122.09375 553.410156 121.863281 C 554.265625 121.636719 555.132812 121.519531 556.019531 121.519531 C 556.902344 121.519531 557.773438 121.636719 558.628906 121.863281 C 559.484375 122.09375 560.292969 122.425781 561.058594 122.867188 L 682.164062 192.574219 C 682.589844 192.828125 682.917969 193.140625 683.296875 193.429688 C 683.613281 193.683594 683.976562 193.910156 684.265625 194.1875 C 684.621094 194.550781 684.871094 194.96875 685.175781 195.371094 C 685.402344 195.671875 685.679688 195.9375 685.855469 196.265625 C 686.144531 196.757812 686.308594 197.300781 686.511719 197.828125 C 686.625 198.117188 686.789062 198.382812 686.863281 198.683594 Z M 667.027344 333.710938 L 667.027344 218.765625 L 624.648438 243.15625 L 566.101562 276.855469 L 566.101562 391.800781 L 667.039062 333.710938 Z M 545.925781 541.644531 L 545.925781 426.625 L 488.335938 459.503906 L 323.882812 553.335938 L 323.882812 669.441406 Z M 81.675781 150.246094 L 81.675781 541.644531 L 303.695312 669.429688 L 303.695312 553.347656 L 187.707031 487.722656 L 187.671875 487.699219 L 187.621094 487.675781 C 187.230469 487.449219 186.902344 487.121094 186.535156 486.84375 C 186.222656 486.589844 185.855469 486.390625 185.578125 486.113281 L 185.554688 486.074219 C 185.226562 485.757812 185 485.367188 184.722656 485.015625 C 184.46875 484.675781 184.167969 484.386719 183.964844 484.035156 L 183.953125 483.996094 C 183.726562 483.617188 183.585938 483.164062 183.421875 482.734375 C 183.257812 482.359375 183.046875 482.003906 182.945312 481.601562 L 182.945312 481.589844 C 182.820312 481.109375 182.792969 480.605469 182.742188 480.117188 C 182.691406 479.738281 182.59375 479.359375 182.59375 478.980469 L 182.59375 208.335938 L 124.058594 174.621094 L 81.675781 150.257812 Z M 192.699219 74.730469 L 91.796875 132.796875 L 192.671875 190.863281 L 293.5625 132.785156 L 192.671875 74.730469 Z M 245.171875 437.105469 L 303.707031 403.417969 L 303.707031 150.246094 L 261.328125 174.636719 L 202.78125 208.335938 L 202.78125 461.507812 Z M 556.019531 143.253906 L 455.128906 201.316406 L 556.019531 259.382812 L 656.894531 201.304688 Z M 545.925781 276.855469 L 487.378906 243.15625 L 444.996094 218.765625 L 444.996094 333.710938 L 503.53125 367.398438 L 545.925781 391.800781 Z M 313.777344 535.886719 L 461.757812 451.429688 L 535.730469 409.226562 L 434.917969 351.199219 L 318.84375 418.007812 L 213.050781 478.894531 Z M 313.777344 535.886719 "/></g></svg>