<svg xmlns="http://www.w3.org/2000/svg" xmlns:xlink="http://www.w3.org/1999/xlink" width="1000" zoomAndPan="magnify" viewBox="0 0 750 749.999995" height="1000" preserveAspectRatio="xMidYMid meet" version="1.2"><defs><clipPath id="1cec4fb3bc"><path d="M 46.5 0 L 703.5 0 C 729.179688 0 750 20.820312 750 46.5 L 750 703.5 C 750 729.179688 729.179688 750 703.5 750 L 46.5 750 C 20.820312 750 0 729.179688 0 703.5 L 0 46.5 C 0 20.820312 20.820312 0 46.5 0 Z M 46.5 0 "/></clipPath></defs><g id="86cba52d3e"><g clip-rule="nonzero" clip-path="url(#1cec4fb3bc)"><rect x="0" width="750" y="0" height="749.999995" style="fill:#ffffff;fill-opacity:1;stroke:none;"/></g><path style=" stroke:none;fill-rule:nonzero;fill:#599636;fill-opacity:1;" d="M 379.882812 120.066406 L 393.820312 146.234375 C 396.957031 151.0625 400.351562 155.335938 404.351562 159.316406 C 416.089844 170.902344 426.992188 183.226562 437.0625 196.285156 C 460.679688 227.28125 476.613281 261.703125 487.988281 298.929688 C 494.8125 321.671875 498.519531 345 498.796875 368.589844 C 499.9375 439.113281 475.746094 499.671875 426.972656 550 C 419.027344 557.992188 410.484375 565.289062 401.347656 571.890625 C 396.515625 571.890625 394.230469 568.1875 392.238281 564.777344 C 388.582031 558.398438 386.207031 551.574219 385.121094 544.304688 C 383.40625 535.773438 382.28125 527.242188 382.835938 518.429688 L 382.835938 514.449219 C 382.445312 513.601562 378.183594 122.074219 379.882812 120.066406 Z M 379.882812 120.066406 "/><path style=" stroke:none;fill-rule:nonzero;fill:#6cac48;fill-opacity:1;" d="M 379.882812 119.203125 C 379.3125 118.058594 378.738281 118.925781 378.167969 119.480469 C 378.445312 125.1875 376.453125 130.277344 373.335938 135.140625 C 369.910156 139.96875 365.371094 143.671875 360.816406 147.652344 C 335.515625 169.546875 315.601562 195.992188 299.65625 225.566406 C 278.433594 265.371094 267.496094 308.03125 264.398438 352.945312 C 262.976562 369.144531 269.523438 426.308594 274.632812 442.800781 C 288.570312 486.585938 313.609375 523.277344 346.042969 555.121094 C 354.011719 562.789062 362.53125 569.902344 371.34375 576.738281 C 373.90625 576.738281 374.183594 574.453125 374.773438 572.753906 C 375.898438 569.121094 376.753906 565.421875 377.335938 561.664062 L 383.046875 519.019531 Z M 379.882812 119.203125 "/><path style=" stroke:none;fill-rule:nonzero;fill:#c2bfbf;fill-opacity:1;" d="M 393.820312 589.214844 C 394.394531 582.691406 397.527344 577.273438 400.9375 571.875 C 397.511719 570.457031 394.964844 567.632812 392.972656 564.484375 C 391.25 561.496094 389.835938 558.371094 388.730469 555.105469 C 384.746094 543.164062 383.898438 530.632812 382.753906 518.429688 L 382.753906 511.042969 C 381.335938 512.183594 381.039062 521.839844 381.039062 523.277344 C 380.210938 536.1875 378.5 548.984375 375.914062 561.664062 C 375.066406 566.785156 374.496094 571.890625 371.34375 576.441406 C 371.34375 577.015625 371.34375 577.585938 371.621094 578.433594 C 376.746094 593.507812 378.152344 608.859375 379.015625 624.503906 L 379.015625 630.210938 C 379.015625 637.03125 378.738281 635.597656 384.402344 637.878906 C 386.6875 638.726562 389.234375 639.023438 391.519531 640.71875 C 393.234375 640.71875 393.511719 639.300781 393.511719 638.15625 L 392.664062 628.777344 L 392.664062 602.609375 C 392.386719 598.042969 393.234375 593.507812 393.804688 589.234375 Z M 393.820312 589.214844 "/></g></svg>