<svg xmlns="http://www.w3.org/2000/svg" xmlns:xlink="http://www.w3.org/1999/xlink" width="1000" zoomAndPan="magnify" viewBox="0 0 750 749.999995" height="1000" preserveAspectRatio="xMidYMid meet" version="1.2"><defs><clipPath id="76d7cada41"><path d="M 46.5 0 L 703.5 0 C 729.179688 0 750 20.820312 750 46.5 L 750 703.5 C 750 729.179688 729.179688 750 703.5 750 L 46.5 750 C 20.820312 750 0 729.179688 0 703.5 L 0 46.5 C 0 20.820312 20.820312 0 46.5 0 Z M 46.5 0 "/></clipPath><clipPath id="b7ab5ecaf1"><path d="M 47.371094 47.371094 L 702.871094 47.371094 L 702.871094 702.871094 L 47.371094 702.871094 Z M 47.371094 47.371094 "/></clipPath></defs><g id="a7eec9468d"><g clip-rule="nonzero" clip-path="url(#76d7cada41)"><rect x="0" width="750" y="0" height="749.999995" style="fill:#ffffff;fill-opacity:1;stroke:none;"/></g><g clip-rule="nonzero" clip-path="url(#b7ab5ecaf1)"><path style=" stroke:none;fill-rule:evenodd;fill:#ffffff;fill-opacity:1;" d="M 47.371094 47.371094 L 702.871094 47.371094 L 702.871094 702.871094 L 47.371094 702.871094 Z M 47.371094 47.371094 "/></g><path style=" stroke:none;fill-rule:evenodd;fill:#00678c;fill-opacity:1;" d="M 76.289062 483.429688 L 96.167969 483.429688 L 96.167969 405.136719 L 126.816406 473.414062 C 130.457031 481.601562 135.316406 484.488281 145.023438 484.488281 C 154.738281 484.488281 159.59375 481.601562 163.230469 473.414062 L 193.882812 405.136719 L 193.882812 483.429688 L 213.605469 483.429688 L 213.605469 405.285156 C 213.605469 397.703125 210.570312 394.050781 204.347656 392.078125 C 189.328125 387.375 179.160156 391.476562 174.609375 401.644531 L 144.570312 468.859375 L 115.4375 401.644531 C 111.039062 391.476562 100.722656 387.375 85.699219 392.078125 C 79.328125 394.050781 76.292969 397.699219 76.292969 405.285156 L 76.292969 483.429688 Z M 230.144531 419.695312 L 249.867188 419.695312 L 249.867188 462.789062 C 249.71875 465.214844 250.625 470.679688 261.550781 470.832031 C 267.011719 470.980469 304.1875 470.832031 304.488281 470.832031 L 304.488281 419.542969 L 324.367188 419.542969 C 324.515625 419.542969 324.367188 489.488281 324.367188 489.796875 C 324.515625 507.089844 302.972656 510.730469 293.109375 511.035156 L 230.597656 511.035156 L 230.597656 497.683594 C 230.597656 497.683594 292.960938 497.835938 293.109375 497.683594 C 305.855469 496.46875 304.339844 490.101562 304.339844 487.976562 L 304.339844 482.8125 L 262.308594 482.8125 C 242.734375 482.515625 230.292969 474.011719 230.144531 464.152344 C 230.144531 463.242188 230.597656 420.15625 230.144531 419.695312 Z M 656.351562 370.082031 C 644.214844 369.777344 634.957031 370.839844 626.914062 374.328125 C 624.640625 375.238281 621.148438 375.238281 620.695312 378.125 C 621.910156 379.332031 622.210938 381.308594 623.121094 382.980469 C 625.09375 386.015625 628.285156 390.109375 631.164062 392.234375 C 634.199219 394.664062 637.386719 397.089844 640.722656 399.214844 C 646.792969 402.851562 653.46875 404.824219 659.082031 408.476562 C 662.574219 410.59375 665.910156 413.332031 669.25 415.753906 C 670.761719 416.96875 671.980469 418.792969 673.953125 419.546875 L 673.953125 419.25 C 672.890625 417.882812 672.585938 415.910156 671.671875 414.386719 L 667.125 409.835938 C 662.726562 404.070312 657.109375 398.910156 651.1875 394.664062 C 646.484375 391.324219 635.863281 386.621094 633.890625 381.160156 C 633.738281 381.007812 633.585938 381.007812 633.585938 380.855469 C 636.925781 380.394531 640.875 379.1875 643.90625 378.421875 C 649.070312 377.0625 653.769531 377.363281 659.078125 376 C 661.507812 375.238281 663.933594 374.632812 666.363281 373.871094 L 666.363281 372.507812 C 663.632812 369.773438 661.816406 365.984375 658.78125 363.554688 C 651.042969 356.878906 642.542969 350.355469 633.894531 344.890625 C 629.039062 341.707031 623.121094 339.734375 617.964844 337.15625 C 616.292969 336.398438 613.257812 335.941406 612.050781 334.425781 C 609.3125 331.085938 607.953125 326.683594 605.824219 322.742188 C 601.375 314.082031 597.226562 305.28125 593.386719 296.335938 C 590.808594 290.421875 588.984375 284.503906 585.804688 279.039062 C 570.019531 253.246094 553.175781 237.617188 526.929688 222.292969 C 521.320312 219.105469 514.644531 217.742188 507.507812 216.070312 C 503.71875 215.765625 499.925781 215.617188 496.128906 215.308594 C 493.851562 214.398438 491.425781 211.519531 489.148438 210.152344 C 480.5 204.691406 458.195312 192.703125 451.820312 208.480469 C 447.722656 218.34375 457.890625 228.054688 461.527344 233.066406 C 464.113281 236.554688 467.292969 240.503906 469.117188 244.445312 C 470.328125 247.019531 470.480469 249.601562 471.542969 252.332031 C 474.121094 259.160156 476.246094 266.59375 479.433594 272.816406 C 481.097656 276 482.917969 279.339844 485.042969 282.226562 C 486.257812 283.894531 488.535156 284.652344 488.835938 287.382812 C 486.710938 290.417969 486.566406 294.96875 485.351562 298.761719 C 480.039062 315.910156 482.011719 337 489.902344 349.742188 C 492.332031 353.535156 497.941406 361.878906 505.835938 358.695312 C 512.664062 355.8125 511.144531 347.3125 513.117188 339.578125 C 513.574219 337.90625 513.269531 336.695312 514.179688 335.480469 L 514.179688 335.78125 C 516.148438 340.03125 518.277344 344.128906 520.402344 348.222656 C 524.953125 355.660156 533.148438 363.546875 540.128906 368.703125 C 543.613281 371.433594 546.496094 376.140625 551.199219 377.65625 L 551.199219 377.347656 L 550.75 377.347656 C 549.835938 375.988281 548.46875 375.378906 547.410156 374.316406 C 544.679688 371.585938 541.644531 368.246094 539.367188 365.210938 C 533.148438 356.714844 527.535156 347.308594 522.378906 337.59375 C 519.945312 332.890625 517.820312 327.734375 515.855469 323.03125 C 515.089844 321.210938 515.089844 318.480469 513.421875 317.414062 C 511.144531 320.902344 507.964844 323.789062 506.136719 327.886719 C 503.40625 334.410156 502.953125 342.449219 502.042969 350.644531 C 501.433594 350.949219 501.585938 350.796875 501.277344 351.101562 C 496.429688 349.886719 494.757812 344.878906 492.9375 340.632812 C 488.539062 329.859375 487.625 312.5625 491.570312 300.121094 C 492.632812 296.933594 497.339844 286.917969 495.367188 283.882812 C 494.449219 281 491.570312 279.179688 489.902344 276.90625 C 487.777344 274.175781 485.804688 270.535156 484.292969 267.347656 C 480.652344 258.847656 478.980469 249.441406 475.03125 240.949219 C 473.058594 236.851562 470.03125 232.75 467.449219 229.261719 C 464.566406 225.164062 461.378906 222.285156 459.109375 217.429688 C 458.347656 215.757812 457.289062 213.027344 458.347656 211.207031 C 458.800781 209.992188 459.261719 209.535156 460.46875 209.078125 C 462.441406 207.5625 468.058594 209.6875 470.175781 210.445312 C 475.640625 212.871094 480.34375 214.996094 485.046875 218.183594 C 487.328125 219.699219 489.605469 222.582031 492.335938 223.34375 L 495.371094 223.34375 C 500.226562 224.402344 505.6875 223.644531 510.238281 225.011719 C 518.277344 227.4375 525.558594 231.230469 532.089844 235.484375 C 552.117188 248.074219 568.355469 265.980469 579.578125 287.375 C 581.398438 290.863281 582.15625 294.050781 583.675781 297.691406 C 586.867188 305.128906 590.957031 312.710938 594.144531 319.84375 C 597.183594 327.128906 600.367188 334.410156 604.765625 340.324219 C 607.195312 343.511719 616.296875 345.179688 620.394531 346.847656 C 623.277344 348.0625 627.976562 349.425781 630.714844 351.097656 C 636.023438 354.132812 641.03125 357.925781 646.039062 361.417969 C 648.460938 363.101562 656.042969 366.894531 656.351562 370.082031 Z M 656.351562 370.082031 "/><path style=" stroke:none;fill-rule:evenodd;fill:#00678c;fill-opacity:1;" d="M 501.585938 238.230469 C 499.480469 238.230469 497.410156 238.484375 495.367188 238.992188 L 495.367188 239.292969 L 495.820312 239.292969 C 497.035156 241.722656 499.160156 243.390625 500.675781 245.515625 C 501.738281 247.941406 502.957031 250.371094 504.015625 252.796875 L 504.46875 252.34375 C 506.59375 250.980469 507.503906 248.550781 507.503906 244.757812 C 506.746094 243.847656 506.59375 242.789062 505.839844 241.722656 C 504.773438 240.203125 502.957031 239.445312 501.585938 238.230469 Z M 501.585938 238.230469 "/><path style=" stroke:none;fill-rule:evenodd;fill:#ce8b2c;fill-opacity:1;" d="M 339.691406 483.429688 L 396.589844 483.429688 C 403.265625 483.429688 409.789062 482.0625 414.945312 479.628906 C 423.441406 475.691406 427.691406 470.378906 427.691406 463.398438 L 427.691406 448.832031 C 427.691406 443.222656 422.835938 437.761719 413.585938 434.269531 C 408.578125 432.296875 402.507812 431.386719 396.589844 431.386719 L 372.617188 431.386719 C 364.574219 431.386719 360.785156 428.953125 359.871094 423.648438 C 359.71875 423.042969 359.71875 422.433594 359.71875 421.828125 L 359.71875 412.875 C 359.71875 412.269531 359.71875 411.8125 359.871094 411.207031 C 360.785156 407.109375 362.90625 405.898438 369.886719 405.292969 C 370.492188 405.292969 371.25 405.140625 371.859375 405.140625 L 428.453125 405.140625 L 428.453125 391.941406 L 372.769531 391.941406 C 364.726562 391.941406 360.628906 392.546875 356.839844 393.605469 C 345.003906 397.398438 339.847656 403.167969 339.847656 413.335938 L 339.847656 424.867188 C 339.847656 433.820312 350.011719 441.402344 366.855469 443.222656 C 368.828125 443.222656 370.644531 443.375 372.617188 443.375 L 393.105469 443.375 C 393.863281 443.375 394.617188 443.375 395.222656 443.527344 C 401.597656 444.132812 404.175781 445.195312 406.148438 447.46875 C 407.210938 448.679688 407.667969 449.746094 407.667969 451.113281 L 407.667969 462.644531 C 407.667969 464.011719 406.757812 465.832031 404.785156 467.347656 C 403.113281 468.867188 400.226562 469.777344 396.4375 470.078125 C 395.679688 470.078125 395.074219 470.230469 394.3125 470.230469 L 339.691406 470.230469 Z M 551.199219 460.359375 C 551.199219 474.015625 561.214844 481.597656 581.703125 483.121094 C 583.519531 483.273438 585.492188 483.425781 587.3125 483.425781 L 638.902344 483.425781 L 638.902344 470.222656 L 587.007812 470.222656 C 575.320312 470.222656 570.925781 467.335938 570.925781 460.359375 L 570.925781 391.933594 L 551.199219 391.933594 Z M 440.289062 461.117188 L 440.289062 414.085938 C 440.289062 402.097656 448.628906 394.816406 465.320312 392.539062 C 466.992188 392.234375 468.964844 392.234375 470.632812 392.234375 L 508.257812 392.234375 C 510.078125 392.234375 511.75 392.234375 513.722656 392.539062 C 530.257812 394.816406 538.753906 402.097656 538.753906 414.085938 L 538.753906 461.117188 C 538.753906 470.832031 535.117188 475.988281 526.921875 479.328125 L 546.496094 496.929688 L 523.433594 496.929688 L 507.652344 482.816406 L 491.714844 483.726562 L 470.628906 483.726562 C 466.988281 483.726562 463.195312 483.277344 458.945312 482.0625 C 446.359375 478.71875 440.289062 472.042969 440.289062 461.117188 Z M 461.683594 459.910156 C 461.683594 460.667969 461.835938 461.269531 461.988281 462.035156 C 463.203125 467.492188 468.355469 470.53125 476.09375 470.53125 L 494.15625 470.53125 L 477.617188 455.660156 L 500.675781 455.660156 L 515.089844 468.558594 C 517.671875 467.191406 519.492188 465.066406 520.097656 462.335938 C 520.25 461.578125 520.25 460.972656 520.25 460.363281 L 520.25 415.148438 C 520.25 414.691406 520.25 414.089844 520.097656 413.476562 C 518.882812 408.320312 513.730469 405.441406 506.140625 405.441406 L 476.097656 405.441406 C 467.296875 405.441406 461.683594 409.234375 461.683594 415.148438 Z M 648.007812 483.429688 L 650.890625 483.429688 L 650.890625 472.503906 L 654.835938 472.503906 L 654.835938 470.222656 L 644.0625 470.222656 L 644.0625 472.503906 L 648.007812 472.503906 Z M 670.160156 483.429688 L 672.738281 483.429688 L 672.738281 470.222656 L 668.792969 470.222656 L 665.308594 479.332031 L 661.820312 470.222656 L 657.722656 470.222656 L 657.722656 483.429688 L 660.453125 483.429688 L 660.453125 473.414062 L 664.246094 483.429688 L 666.21875 483.429688 L 670.011719 473.414062 L 670.164062 473.414062 L 670.164062 483.429688 Z M 670.160156 483.429688 "/><path style=" stroke:none;fill-rule:evenodd;fill:#00678c;fill-opacity:1;" d="M 80.691406 359.003906 L 80.691406 309.234375 L 96.164062 309.234375 C 99.804688 309.234375 102.386719 309.542969 104.207031 310.148438 C 106.480469 311.058594 108.300781 312.574219 109.816406 315.003906 C 111.183594 317.277344 111.941406 320.164062 111.941406 323.503906 C 111.941406 328.054688 110.730469 331.695312 108.453125 334.429688 C 106.179688 337.308594 102.230469 338.675781 96.621094 338.675781 L 86.148438 338.675781 L 86.148438 359.007812 L 80.691406 359.007812 Z M 86.152344 332.910156 L 96.773438 332.910156 C 100.113281 332.910156 102.535156 332.148438 104.058594 330.632812 C 105.578125 329.117188 106.332031 326.839844 106.332031 323.804688 C 106.332031 321.832031 105.875 320.164062 105.117188 318.796875 C 104.359375 317.277344 103.449219 316.371094 102.386719 315.914062 C 101.324219 315.304688 99.351562 315.152344 96.621094 315.152344 L 86.152344 315.152344 Z M 117.257812 334.726562 C 117.257812 326.382812 119.082031 319.855469 122.871094 315.304688 C 126.664062 310.753906 131.21875 308.476562 136.828125 308.476562 C 140.472656 308.476562 143.8125 309.390625 146.691406 311.511719 C 149.726562 313.484375 152.003906 316.515625 153.820312 320.3125 C 155.492188 324.257812 156.398438 328.8125 156.398438 334.117188 C 156.398438 341.554688 154.730469 347.625 151.390625 352.175781 C 147.597656 357.335938 142.742188 359.914062 136.824219 359.914062 C 130.757812 359.914062 125.902344 357.183594 122.261719 352.023438 C 118.929688 347.324219 117.257812 341.554688 117.257812 334.726562 Z M 122.871094 334.878906 C 122.871094 340.949219 124.238281 345.804688 126.96875 349.144531 C 129.546875 352.480469 132.886719 354.300781 136.832031 354.300781 C 140.777344 354.300781 144.117188 352.480469 146.695312 349.144531 C 149.425781 345.652344 150.792969 340.644531 150.792969 333.972656 C 150.792969 329.722656 150.035156 325.929688 148.667969 322.589844 C 147.605469 320.011719 146.085938 317.886719 143.964844 316.371094 C 142.925781 315.625 141.796875 315.054688 140.578125 314.667969 C 139.359375 314.277344 138.109375 314.089844 136.828125 314.097656 C 132.730469 314.097656 129.394531 315.765625 126.816406 319.101562 C 124.085938 322.589844 122.871094 327.75 122.871094 334.878906 Z M 170.214844 359.003906 L 159.441406 309.234375 L 164.902344 309.234375 L 171.125 341.859375 C 171.882812 345.199219 172.335938 348.6875 172.945312 352.027344 L 174.761719 342.921875 L 182.652344 309.238281 L 189.027344 309.238281 L 194.789062 334.429688 C 196.214844 340.234375 197.328125 346.101562 198.125 352.027344 C 198.582031 348.839844 199.1875 345.199219 200.097656 341.257812 L 206.472656 309.238281 L 212.085938 309.238281 L 200.859375 359.007812 L 195.546875 359.007812 L 186.902344 321.074219 L 185.535156 315.308594 C 185.230469 317.433594 184.773438 319.40625 184.472656 321.074219 L 175.675781 359.003906 Z M 217.09375 359.003906 L 217.09375 309.234375 L 246.53125 309.234375 L 246.53125 315.15625 L 222.40625 315.15625 L 222.40625 330.332031 L 245.015625 330.332031 L 245.015625 336.246094 L 222.40625 336.246094 L 222.40625 353.242188 L 247.441406 353.242188 L 247.441406 359.003906 Z M 254.875 359.003906 L 254.875 309.234375 L 272.933594 309.234375 C 276.730469 309.234375 279.609375 309.691406 281.28125 310.601562 C 283.101562 311.515625 284.617188 313.183594 285.828125 315.304688 C 286.890625 317.433594 287.5 320.007812 287.5 322.742188 C 287.5 326.535156 286.585938 329.570312 284.617188 331.996094 C 282.644531 334.273438 279.757812 335.792969 275.96875 336.398438 C 277.484375 337.308594 278.699219 338.21875 279.457031 339.128906 C 281.125 341.101562 282.492188 343.226562 283.703125 345.5 L 290.839844 359.003906 L 284.011719 359.003906 L 278.546875 348.6875 C 276.421875 344.59375 274.90625 341.859375 273.84375 340.496094 C 272.785156 339.132812 271.71875 338.21875 270.660156 337.613281 C 269.746094 337.15625 268.382812 336.851562 266.5625 336.851562 L 260.339844 336.851562 L 260.339844 359.003906 Z M 260.339844 331.238281 L 271.871094 331.238281 C 274.449219 331.238281 276.417969 330.9375 277.632812 330.328125 C 278.996094 329.71875 280.0625 328.65625 280.820312 327.445312 C 281.578125 326.078125 281.882812 324.558594 281.882812 322.890625 C 281.882812 320.3125 281.277344 318.339844 279.757812 316.824219 C 278.238281 315.460938 276.113281 314.699219 273.234375 314.699219 L 260.339844 314.699219 Z M 296.148438 359.003906 L 296.148438 309.234375 L 325.582031 309.234375 L 325.582031 315.15625 L 301.609375 315.15625 L 301.609375 330.332031 L 324.0625 330.332031 L 324.0625 336.246094 L 301.609375 336.246094 L 301.609375 353.242188 L 326.644531 353.242188 L 326.644531 359.003906 Z M 333.925781 359.003906 L 333.925781 309.234375 L 348.035156 309.234375 C 351.523438 309.234375 354.105469 309.542969 355.925781 310.148438 C 358.351562 310.90625 360.324219 312.421875 362.144531 314.546875 C 363.8125 316.671875 365.179688 319.25 366.242188 322.4375 C 367.152344 325.625 367.605469 329.417969 367.605469 333.820312 C 367.605469 339.433594 366.847656 344.289062 365.175781 348.230469 C 363.507812 352.175781 361.386719 354.90625 358.804688 356.578125 C 356.226562 358.246094 352.734375 359.003906 348.640625 359.003906 Z M 339.390625 353.242188 L 348.039062 353.242188 C 351.527344 353.242188 354.109375 352.632812 355.925781 351.421875 C 357.75 350.359375 359.113281 348.539062 360.175781 345.960938 C 361.390625 342.625 361.996094 338.527344 361.996094 333.824219 C 361.996094 328.8125 361.390625 324.71875 360.023438 321.835938 C 358.660156 318.953125 356.835938 316.980469 354.714844 316.066406 C 353.347656 315.464844 351.070312 315.15625 347.886719 315.15625 L 339.386719 315.15625 L 339.386719 353.242188 Z M 392.339844 359.003906 L 392.339844 309.234375 L 407.667969 309.234375 C 410.851562 309.234375 413.28125 309.691406 415.101562 310.753906 C 416.921875 311.664062 418.441406 313.179688 419.507812 315.152344 C 420.714844 317.277344 421.324219 319.40625 421.324219 321.980469 C 421.324219 324.257812 420.714844 326.234375 419.804688 328.050781 C 418.746094 329.871094 417.382812 331.386719 415.5625 332.449219 C 417.871094 333.355469 419.742188 334.824219 421.171875 336.851562 C 422.53125 338.976562 423.144531 341.554688 423.144531 344.589844 C 423.144531 347.625 422.53125 350.199219 421.324219 352.480469 C 420.113281 354.753906 418.441406 356.425781 416.316406 357.488281 C 414.34375 358.550781 411.460938 359.003906 407.820312 359.003906 Z M 397.808594 330.175781 L 406.609375 330.175781 C 408.878906 330.175781 410.550781 330.027344 411.464844 329.722656 C 412.976562 329.265625 414.042969 328.359375 414.796875 327.296875 C 415.5625 326.234375 415.859375 324.714844 415.859375 322.746094 C 415.859375 320.925781 415.558594 319.40625 414.945312 318.195312 C 414.1875 316.980469 413.28125 316.222656 412.0625 315.765625 C 411 315.308594 408.871094 315.15625 405.992188 315.15625 L 397.804688 315.15625 L 397.804688 330.175781 Z M 397.808594 353.242188 L 407.96875 353.242188 C 410.09375 353.242188 411.761719 352.9375 412.824219 352.632812 C 414.351562 352.039062 415.515625 351.027344 416.316406 349.597656 C 417.226562 348.386719 417.523438 346.566406 417.523438 344.59375 C 417.523438 342.621094 417.226562 341.105469 416.464844 339.738281 C 415.703125 338.523438 414.648438 337.460938 413.277344 336.851562 C 412.0625 336.246094 409.9375 335.941406 407.207031 335.941406 L 397.800781 335.941406 L 397.800781 353.242188 Z M 441.953125 359.003906 L 441.953125 337.914062 L 426.332031 309.234375 L 432.855469 309.234375 L 440.890625 324.257812 C 442.429688 327.027344 443.847656 329.859375 445.140625 332.753906 C 446.355469 330.023438 447.71875 327.140625 449.542969 323.953125 L 457.433594 309.234375 L 463.652344 309.234375 L 447.417969 337.914062 L 447.417969 359.003906 Z M 441.953125 359.003906 "/></g></svg>