<svg xmlns="http://www.w3.org/2000/svg" xmlns:xlink="http://www.w3.org/1999/xlink" width="1000" zoomAndPan="magnify" viewBox="0 0 750 749.999995" height="1000" preserveAspectRatio="xMidYMid meet" version="1.2"><defs><clipPath id="f75ec22b7b"><path d="M 46.5 0 L 703.5 0 C 729.179688 0 750 20.820312 750 46.5 L 750 703.5 C 750 729.179688 729.179688 750 703.5 750 L 46.5 750 C 20.820312 750 0 729.179688 0 703.5 L 0 46.5 C 0 20.820312 20.820312 0 46.5 0 Z M 46.5 0 "/></clipPath><clipPath id="6745979070"><path d="M 54.171875 54 L 696.171875 54 L 696.171875 696.519531 L 54.171875 696.519531 Z M 54.171875 54 "/></clipPath></defs><g id="1fbe720b82"><g clip-rule="nonzero" clip-path="url(#f75ec22b7b)"><rect x="0" width="750" y="0" height="749.999995" style="fill:#ffffff;fill-opacity:1;stroke:none;"/></g><g clip-rule="nonzero" clip-path="url(#6745979070)"><path style=" stroke:none;fill-rule:nonzero;fill:#000000;fill-opacity:1;" d="M 354.148438 54.332031 C 352.769531 54.457031 348.375 54.898438 344.421875 55.210938 C 253.234375 63.429688 167.824219 112.628906 113.726562 188.242188 C 83.605469 230.285156 64.339844 277.976562 57.058594 328.492188 C 54.484375 346.125 54.171875 351.332031 54.171875 375.238281 C 54.171875 399.148438 54.484375 404.355469 57.058594 421.988281 C 74.503906 542.535156 160.292969 643.8125 276.644531 681.339844 C 297.480469 688.054688 319.445312 692.632812 344.421875 695.394531 C 354.148438 696.460938 396.195312 696.460938 405.921875 695.394531 C 449.035156 690.625 485.5625 679.957031 521.582031 661.570312 C 527.105469 658.75 528.171875 657.996094 527.417969 657.367188 C 526.917969 656.992188 503.382812 625.425781 475.144531 587.273438 L 423.808594 517.933594 L 359.484375 422.742188 C 324.089844 370.40625 294.96875 327.613281 294.71875 327.613281 C 294.46875 327.550781 294.214844 369.84375 294.089844 421.488281 C 293.902344 511.910156 293.839844 515.550781 292.710938 517.683594 C 291.078125 520.757812 289.824219 522.015625 287.1875 523.394531 C 285.179688 524.398438 283.421875 524.585938 273.945312 524.585938 L 263.089844 524.585938 L 260.203125 522.765625 C 258.320312 521.574219 256.9375 520.007812 255.996094 518.1875 L 254.679688 515.363281 L 254.804688 389.546875 L 254.992188 263.667969 L 256.9375 261.222656 C 257.941406 259.902344 260.078125 258.210938 261.582031 257.394531 C 264.15625 256.140625 265.160156 256.011719 276.015625 256.011719 C 288.820312 256.011719 290.953125 256.515625 294.277344 260.15625 C 295.21875 261.160156 330.050781 313.617188 371.722656 376.808594 C 413.390625 440 470.375 526.28125 498.363281 568.636719 L 549.195312 645.632812 L 551.769531 643.9375 C 574.550781 629.128906 598.648438 608.046875 617.726562 586.082031 C 658.332031 539.457031 684.5 482.605469 693.285156 421.988281 C 695.859375 404.355469 696.171875 399.148438 696.171875 375.238281 C 696.171875 351.332031 695.859375 346.125 693.285156 328.492188 C 675.839844 207.945312 590.050781 106.667969 473.699219 69.140625 C 453.179688 62.488281 431.339844 57.910156 406.863281 55.148438 C 400.839844 54.519531 359.359375 53.832031 354.148438 54.332031 Z M 485.5625 248.484375 C 488.574219 249.988281 491.019531 252.875 491.898438 255.886719 C 492.402344 257.519531 492.527344 292.410156 492.402344 371.035156 L 492.214844 483.863281 L 472.320312 453.363281 L 452.363281 422.867188 L 452.363281 340.851562 C 452.363281 287.828125 452.613281 258.019531 452.992188 256.578125 C 453.996094 253.0625 456.191406 250.304688 459.203125 248.671875 C 461.777344 247.355469 462.71875 247.226562 472.570312 247.226562 C 481.859375 247.226562 483.492188 247.355469 485.5625 248.484375 Z M 485.5625 248.484375 "/></g><path style=" stroke:none;fill-rule:nonzero;fill:#000000;fill-opacity:1;" d="M 546.058594 647.015625 C 543.863281 648.394531 543.171875 649.335938 545.117188 648.269531 C 546.496094 647.453125 548.757812 645.757812 548.378906 645.695312 C 548.191406 645.695312 547.125 646.324219 546.058594 647.015625 Z M 541.726562 649.835938 C 540.597656 650.714844 540.597656 650.777344 541.980469 650.089844 C 542.734375 649.710938 543.359375 649.273438 543.359375 649.148438 C 543.359375 648.644531 543.046875 648.769531 541.726562 649.835938 Z M 538.589844 651.71875 C 537.460938 652.597656 537.460938 652.660156 538.839844 651.972656 C 539.59375 651.59375 540.222656 651.15625 540.222656 651.03125 C 540.222656 650.527344 539.910156 650.652344 538.589844 651.71875 Z M 535.453125 653.601562 C 534.324219 654.480469 534.324219 654.542969 535.703125 653.855469 C 536.457031 653.476562 537.085938 653.039062 537.085938 652.914062 C 537.085938 652.410156 536.769531 652.535156 535.453125 653.601562 Z M 530.683594 656.113281 C 528.296875 657.367188 528.425781 657.871094 530.808594 656.675781 C 531.875 656.113281 532.691406 655.546875 532.691406 655.421875 C 532.691406 654.984375 532.628906 655.046875 530.683594 656.113281 Z M 530.683594 656.113281 "/></g></svg>