<svg xmlns="http://www.w3.org/2000/svg" xmlns:xlink="http://www.w3.org/1999/xlink" width="1000" zoomAndPan="magnify" viewBox="0 0 750 749.999995" height="1000" preserveAspectRatio="xMidYMid meet" version="1.2"><defs><clipPath id="0f7d8ff4c1"><path d="M 46.5 0 L 703.5 0 C 729.179688 0 750 20.820312 750 46.5 L 750 703.5 C 750 729.179688 729.179688 750 703.5 750 L 46.5 750 C 20.820312 750 0 729.179688 0 703.5 L 0 46.5 C 0 20.820312 20.820312 0 46.5 0 Z M 46.5 0 "/></clipPath><clipPath id="f777228b7f"><path d="M 80 44 L 670 44 L 670 707.5 L 80 707.5 Z M 80 44 "/></clipPath></defs><g id="5e6adabeea"><g clip-rule="nonzero" clip-path="url(#0f7d8ff4c1)"><rect x="0" width="750" y="0" height="749.999995" style="fill:#ffffff;fill-opacity:1;stroke:none;"/></g><g clip-rule="nonzero" clip-path="url(#f777228b7f)"><path style=" stroke:none;fill-rule:nonzero;fill:#00d486;fill-opacity:1;" d="M 374.96875 707.476562 C 370.496094 707.480469 366.097656 706.902344 361.777344 705.746094 C 357.457031 704.589844 353.359375 702.890625 349.484375 700.65625 L 268.382812 652.65625 C 256.28125 645.882812 262.179688 643.492188 266.179688 642.09375 C 279.105469 638.101562 291.332031 632.574219 302.871094 625.515625 C 303.847656 625.0625 304.875 624.878906 305.949219 624.957031 C 307.023438 625.039062 308.011719 625.375 308.910156 625.964844 L 371.226562 662.980469 C 371.808594 663.285156 372.414062 663.519531 373.050781 663.675781 C 373.691406 663.835938 374.335938 663.914062 374.992188 663.914062 C 375.648438 663.914062 376.296875 663.835938 376.933594 663.675781 C 377.570312 663.519531 378.179688 663.285156 378.757812 662.980469 L 621.773438 522.742188 C 622.34375 522.398438 622.859375 521.992188 623.320312 521.519531 C 623.785156 521.042969 624.179688 520.515625 624.503906 519.941406 C 624.828125 519.363281 625.078125 518.753906 625.242188 518.113281 C 625.410156 517.472656 625.496094 516.820312 625.492188 516.15625 L 625.492188 235.628906 C 625.492188 234.957031 625.40625 234.296875 625.238281 233.644531 C 625.066406 232.992188 624.816406 232.375 624.488281 231.785156 C 624.15625 231.199219 623.757812 230.664062 623.292969 230.179688 C 622.824219 229.695312 622.300781 229.277344 621.726562 228.929688 L 378.710938 88.808594 C 378.136719 88.484375 377.535156 88.242188 376.898438 88.074219 C 376.261719 87.90625 375.613281 87.824219 374.957031 87.824219 C 374.300781 87.824219 373.652344 87.90625 373.015625 88.074219 C 372.378906 88.242188 371.777344 88.484375 371.203125 88.808594 L 128.332031 228.976562 C 127.75 229.320312 127.226562 229.730469 126.75 230.207031 C 126.277344 230.6875 125.875 231.214844 125.539062 231.800781 C 125.203125 232.382812 124.945312 233 124.769531 233.648438 C 124.589844 234.296875 124.5 234.957031 124.492188 235.628906 L 124.492188 516.039062 C 124.496094 516.699219 124.582031 517.347656 124.757812 517.988281 C 124.933594 518.625 125.1875 519.230469 125.523438 519.800781 C 125.855469 520.371094 126.261719 520.886719 126.734375 521.347656 C 127.203125 521.8125 127.730469 522.203125 128.304688 522.527344 L 194.957031 560.984375 C 231.078125 579.03125 253.203125 557.765625 253.203125 536.40625 L 253.203125 259.546875 C 253.203125 259.082031 253.246094 258.621094 253.335938 258.164062 C 253.429688 257.707031 253.5625 257.261719 253.742188 256.828125 C 253.921875 256.398438 254.140625 255.988281 254.398438 255.601562 C 254.65625 255.214844 254.953125 254.855469 255.28125 254.523438 C 255.613281 254.195312 255.972656 253.902344 256.359375 253.640625 C 256.746094 253.382812 257.15625 253.164062 257.585938 252.984375 C 258.019531 252.804688 258.464844 252.671875 258.921875 252.582031 C 259.378906 252.488281 259.839844 252.445312 260.308594 252.445312 L 291.097656 252.445312 C 291.566406 252.445312 292.027344 252.488281 292.484375 252.582031 C 292.941406 252.671875 293.386719 252.804688 293.816406 252.984375 C 294.25 253.164062 294.65625 253.382812 295.046875 253.640625 C 295.433594 253.902344 295.792969 254.195312 296.121094 254.523438 C 296.453125 254.855469 296.746094 255.214844 297.007812 255.601562 C 297.265625 255.988281 297.484375 256.398438 297.664062 256.828125 C 297.839844 257.261719 297.976562 257.703125 298.066406 258.164062 C 298.160156 258.621094 298.203125 259.082031 298.203125 259.546875 L 298.203125 536.429688 C 298.203125 584.621094 271.960938 612.207031 226.246094 612.207031 C 221.339844 612.292969 216.453125 612.03125 211.585938 611.425781 C 206.714844 610.820312 201.914062 609.875 197.179688 608.585938 C 192.445312 607.300781 187.824219 605.6875 183.320312 603.75 C 178.8125 601.808594 174.464844 599.558594 170.277344 597.003906 L 106.398438 560.371094 C 104.46875 559.246094 102.617188 558 100.851562 556.636719 C 99.082031 555.269531 97.410156 553.796875 95.835938 552.210938 C 94.261719 550.628906 92.792969 548.949219 91.4375 547.171875 C 90.082031 545.398438 88.847656 543.542969 87.734375 541.605469 C 86.621094 539.667969 85.640625 537.667969 84.789062 535.605469 C 83.9375 533.539062 83.222656 531.429688 82.644531 529.269531 C 82.070312 527.113281 81.636719 524.925781 81.347656 522.710938 C 81.054688 520.496094 80.910156 518.273438 80.910156 516.039062 L 80.910156 235.628906 C 80.90625 233.394531 81.046875 231.167969 81.332031 228.949219 C 81.617188 226.730469 82.046875 224.539062 82.621094 222.375 C 83.195312 220.214844 83.90625 218.097656 84.757812 216.03125 C 85.609375 213.960938 86.589844 211.957031 87.707031 210.015625 C 88.820312 208.074219 90.054688 206.21875 91.410156 204.4375 C 92.769531 202.660156 94.238281 200.976562 95.816406 199.390625 C 97.390625 197.804688 99.066406 196.332031 100.839844 194.964844 C 102.609375 193.597656 104.460938 192.351562 106.398438 191.230469 L 349.4375 50.941406 C 351.386719 49.875 353.394531 48.933594 355.460938 48.121094 C 357.527344 47.304688 359.640625 46.621094 361.792969 46.074219 C 363.945312 45.523438 366.125 45.109375 368.328125 44.832031 C 370.535156 44.554688 372.746094 44.414062 374.96875 44.414062 C 377.191406 44.414062 379.40625 44.554688 381.609375 44.832031 C 383.816406 45.109375 385.992188 45.523438 388.144531 46.074219 C 390.300781 46.621094 392.410156 47.304688 394.476562 48.121094 C 396.542969 48.933594 398.554688 49.875 400.503906 50.941406 L 643.515625 191.230469 C 645.449219 192.351562 647.296875 193.59375 649.066406 194.957031 C 650.832031 196.320312 652.503906 197.792969 654.078125 199.375 C 655.65625 200.953125 657.121094 202.632812 658.476562 204.40625 C 659.835938 206.179688 661.070312 208.03125 662.183594 209.964844 C 663.296875 211.902344 664.28125 213.898438 665.136719 215.960938 C 665.988281 218.023438 666.703125 220.132812 667.28125 222.289062 C 667.859375 224.445312 668.292969 226.632812 668.585938 228.84375 C 668.878906 231.058594 669.023438 233.28125 669.027344 235.511719 L 669.027344 516.039062 C 669.023438 518.273438 668.875 520.496094 668.582031 522.710938 C 668.289062 524.925781 667.851562 527.109375 667.273438 529.269531 C 666.695312 531.425781 665.980469 533.535156 665.128906 535.601562 C 664.273438 537.664062 663.289062 539.664062 662.175781 541.601562 C 661.0625 543.535156 659.828125 545.390625 658.472656 547.167969 C 657.117188 548.941406 655.652344 550.621094 654.074219 552.207031 C 652.5 553.789062 650.828125 555.265625 649.0625 556.632812 C 647.296875 558 645.445312 559.246094 643.515625 560.371094 L 400.503906 700.65625 C 396.621094 702.894531 392.515625 704.59375 388.1875 705.75 C 383.855469 706.90625 379.449219 707.480469 374.96875 707.476562 Z M 374.96875 707.476562 "/></g><path style=" stroke:none;fill-rule:nonzero;fill:#00d486;fill-opacity:1;" d="M 328.875 422.191406 C 328.875 421.722656 328.921875 421.261719 329.011719 420.804688 C 329.105469 420.347656 329.238281 419.902344 329.417969 419.472656 C 329.597656 419.039062 329.816406 418.632812 330.074219 418.242188 C 330.332031 417.855469 330.628906 417.496094 330.957031 417.167969 C 331.289062 416.835938 331.648438 416.542969 332.035156 416.285156 C 332.421875 416.023438 332.832031 415.804688 333.261719 415.628906 C 333.695312 415.449219 334.140625 415.3125 334.597656 415.222656 C 335.054688 415.132812 335.515625 415.085938 335.984375 415.085938 L 367.414062 415.085938 C 367.832031 415.085938 368.242188 415.125 368.652344 415.199219 C 369.0625 415.273438 369.464844 415.382812 369.855469 415.527344 C 370.246094 415.671875 370.621094 415.847656 370.980469 416.058594 C 371.339844 416.269531 371.679688 416.511719 371.996094 416.78125 C 372.3125 417.050781 372.605469 417.34375 372.867188 417.667969 C 373.132812 417.988281 373.371094 418.328125 373.574219 418.691406 C 373.78125 419.054688 373.953125 419.433594 374.089844 419.824219 C 374.230469 420.21875 374.332031 420.621094 374.402344 421.03125 C 379.136719 453.023438 393.347656 469.148438 457.609375 469.148438 C 508.792969 469.148438 530.609375 457.570312 530.609375 430.40625 C 530.609375 414.753906 524.425781 403.128906 444.867188 395.335938 C 378.355469 388.753906 337.238281 374.023438 337.238281 320.882812 C 337.238281 271.863281 378.570312 242.617188 447.851562 242.617188 C 525.703125 242.617188 564.242188 269.636719 569.121094 327.609375 C 569.15625 328.09375 569.144531 328.574219 569.085938 329.054688 C 569.023438 329.539062 568.914062 330.007812 568.753906 330.464844 C 568.597656 330.925781 568.394531 331.363281 568.144531 331.78125 C 567.898438 332.199219 567.609375 332.585938 567.28125 332.945312 C 566.957031 333.304688 566.59375 333.625 566.203125 333.910156 C 565.808594 334.195312 565.390625 334.433594 564.949219 334.632812 C 564.503906 334.832031 564.046875 334.984375 563.574219 335.089844 C 563.097656 335.195312 562.617188 335.25 562.132812 335.257812 L 530.488281 335.257812 C 529.695312 335.246094 528.925781 335.105469 528.179688 334.835938 C 527.433594 334.566406 526.75 334.183594 526.132812 333.6875 C 525.511719 333.1875 524.992188 332.601562 524.570312 331.929688 C 524.148438 331.257812 523.847656 330.535156 523.667969 329.761719 C 516.113281 296.113281 497.613281 285.359375 447.875 285.359375 C 391.976562 285.359375 385.484375 304.828125 385.484375 319.414062 C 385.484375 337.082031 393.160156 342.242188 468.621094 352.210938 C 543.304688 362.085938 578.785156 376.058594 578.785156 428.535156 C 578.785156 481.488281 534.632812 511.800781 457.632812 511.800781 C 351.164062 511.941406 328.875 463.136719 328.875 422.191406 Z M 328.875 422.191406 "/></g></svg>