<svg xmlns="http://www.w3.org/2000/svg" xmlns:xlink="http://www.w3.org/1999/xlink" width="1000" zoomAndPan="magnify" viewBox="0 0 750 749.999995" height="1000" preserveAspectRatio="xMidYMid meet" version="1.2"><defs><clipPath id="45c6bd0969"><path d="M 46.5 0 L 703.5 0 C 729.179688 0 750 20.820312 750 46.5 L 750 703.5 C 750 729.179688 729.179688 750 703.5 750 L 46.5 750 C 20.820312 750 0 729.179688 0 703.5 L 0 46.5 C 0 20.820312 20.820312 0 46.5 0 Z M 46.5 0 "/></clipPath><clipPath id="7e793533a5"><path d="M 19.40625 28.457031 L 730.40625 28.457031 L 730.40625 721.457031 L 19.40625 721.457031 Z M 19.40625 28.457031 "/></clipPath></defs><g id="da25ae2f18"><g clip-rule="nonzero" clip-path="url(#45c6bd0969)"><rect x="0" width="750" y="0" height="749.999995" style="fill:#001e36;fill-opacity:1;stroke:none;"/></g><g clip-rule="nonzero" clip-path="url(#7e793533a5)"><path style=" stroke:none;fill-rule:nonzero;fill:#001e36;fill-opacity:1;" d="M 145.417969 28.457031 L 604.394531 28.457031 C 673.984375 28.457031 730.246094 84.726562 730.246094 154.324219 L 730.246094 595.59375 C 730.246094 665.1875 673.984375 721.457031 604.394531 721.457031 L 145.417969 721.457031 C 75.828125 721.457031 19.566406 665.1875 19.566406 595.59375 L 19.566406 154.324219 C 19.566406 84.726562 75.828125 28.457031 145.417969 28.457031 Z M 145.417969 28.457031 "/></g><path style=" stroke:none;fill-rule:nonzero;fill:#31a8ff;fill-opacity:1;" d="M 179.46875 514.445312 L 179.46875 209.703125 C 179.46875 207.632812 180.359375 206.445312 182.429688 206.445312 C 187.464844 206.445312 192.203125 206.445312 199.015625 206.152344 C 206.121094 205.855469 213.523438 205.855469 221.519531 205.558594 C 229.515625 205.261719 238.101562 205.261719 247.28125 204.964844 C 256.460938 204.667969 265.34375 204.667969 274.226562 204.667969 C 298.507812 204.667969 318.644531 207.632812 335.226562 213.851562 C 350.03125 218.886719 363.65625 227.175781 374.90625 238.136719 C 384.382812 247.613281 391.785156 259.160156 396.523438 271.898438 C 400.964844 284.335938 403.332031 297.070312 403.332031 310.398438 C 403.332031 335.867188 397.410156 356.894531 385.566406 373.476562 C 373.722656 390.0625 357.140625 402.5 337.890625 409.609375 C 317.757812 417.011719 295.546875 419.675781 271.265625 419.675781 C 264.160156 419.675781 259.421875 419.675781 256.460938 419.382812 C 253.5 419.085938 249.355469 419.085938 243.726562 419.085938 L 243.726562 514.152344 C 244.023438 516.222656 242.542969 518 240.46875 518.296875 L 183.023438 518.296875 C 180.65625 518.296875 179.46875 517.113281 179.46875 514.445312 Z M 244.023438 263.605469 L 244.023438 363.113281 C 248.167969 363.410156 252.019531 363.703125 255.570312 363.703125 L 271.265625 363.703125 C 282.816406 363.703125 294.363281 361.925781 305.320312 358.375 C 314.796875 355.707031 323.085938 350.082031 329.601562 342.675781 C 335.820312 335.273438 338.78125 325.203125 338.78125 312.171875 C 339.078125 302.992188 336.707031 293.8125 331.96875 285.816406 C 326.9375 278.117188 319.828125 272.191406 311.242188 268.933594 C 300.285156 264.492188 288.441406 262.714844 276.300781 263.011719 C 268.601562 263.011719 261.789062 263.011719 256.164062 263.308594 C 250.242188 263.011719 246.097656 263.308594 244.023438 263.605469 Z M 588.109375 345.046875 C 579.226562 340.308594 569.75 337.050781 559.683594 334.976562 C 548.726562 332.609375 537.769531 331.128906 526.519531 331.128906 C 520.59375 330.832031 514.378906 331.71875 508.75 333.199219 C 504.902344 334.089844 501.644531 336.160156 499.570312 339.125 C 498.089844 341.492188 497.203125 344.453125 497.203125 347.121094 C 497.203125 349.785156 498.386719 352.449219 500.164062 354.820312 C 502.828125 358.078125 506.382812 360.742188 510.230469 362.816406 C 517.042969 366.371094 524.148438 369.628906 531.253906 372.589844 C 547.246094 377.917969 562.644531 385.324219 576.859375 394.207031 C 586.628906 400.425781 594.625 408.71875 600.25 418.789062 C 604.988281 428.265625 607.359375 438.632812 607.0625 449.292969 C 607.359375 463.210938 603.210938 477.132812 595.511719 488.679688 C 587.222656 500.527344 575.671875 509.707031 562.347656 515.039062 C 547.839844 521.257812 530.070312 524.515625 508.75 524.515625 C 495.128906 524.515625 481.804688 523.332031 468.480469 520.664062 C 458.113281 518.890625 447.75 515.632812 438.277344 511.1875 C 436.203125 510.003906 434.722656 507.929688 435.019531 505.5625 L 435.019531 454.03125 C 435.019531 453.144531 435.3125 451.957031 436.203125 451.367188 C 437.089844 450.773438 437.980469 451.070312 438.867188 451.660156 C 450.417969 458.472656 462.558594 463.210938 475.585938 466.171875 C 486.839844 469.136719 498.683594 470.617188 510.527344 470.617188 C 521.78125 470.617188 529.773438 469.136719 535.105469 466.46875 C 539.84375 464.398438 543.101562 459.363281 543.101562 454.03125 C 543.101562 449.886719 540.730469 446.035156 535.992188 442.183594 C 531.253906 438.335938 521.484375 433.894531 506.972656 428.265625 C 491.871094 422.933594 477.953125 415.828125 464.925781 406.941406 C 455.746094 400.425781 448.046875 391.839844 442.421875 381.769531 C 437.683594 372.292969 435.3125 361.925781 435.609375 351.5625 C 435.609375 338.828125 439.164062 326.683594 445.679688 315.726562 C 453.082031 303.882812 464.039062 294.40625 476.769531 288.480469 C 490.6875 281.375 508.160156 278.117188 529.183594 278.117188 C 541.324219 278.117188 553.761719 279.003906 565.902344 280.78125 C 574.785156 281.964844 583.371094 284.335938 591.367188 287.59375 C 592.550781 287.890625 593.734375 289.074219 594.328125 290.257812 C 594.625 291.441406 594.921875 292.628906 594.921875 293.8125 L 594.921875 342.085938 C 594.921875 343.269531 594.328125 344.453125 593.441406 345.046875 C 590.773438 345.640625 589.292969 345.640625 588.109375 345.046875 Z M 588.109375 345.046875 "/></g></svg>