<svg xmlns="http://www.w3.org/2000/svg" xmlns:xlink="http://www.w3.org/1999/xlink" width="1000" zoomAndPan="magnify" viewBox="0 0 750 749.999995" height="1000" preserveAspectRatio="xMidYMid meet" version="1.2"><defs><clipPath id="ef97e00576"><path d="M 46.5 0 L 703.5 0 C 729.179688 0 750 20.820312 750 46.5 L 750 703.5 C 750 729.179688 729.179688 750 703.5 750 L 46.5 750 C 20.820312 750 0 729.179688 0 703.5 L 0 46.5 C 0 20.820312 20.820312 0 46.5 0 Z M 46.5 0 "/></clipPath><clipPath id="55e7ccb322"><path d="M 20.894531 20.894531 L 728.894531 20.894531 L 728.894531 728.894531 L 20.894531 728.894531 Z M 20.894531 20.894531 "/></clipPath></defs><g id="a802f4bd09"><g clip-rule="nonzero" clip-path="url(#ef97e00576)"><rect x="0" width="750" y="0" height="749.999995" style="fill:#ffffff;fill-opacity:1;stroke:none;"/></g><g clip-rule="nonzero" clip-path="url(#55e7ccb322)"><path style=" stroke:none;fill-rule:evenodd;fill:#ffffff;fill-opacity:1;" d="M 20.894531 20.894531 L 728.894531 20.894531 L 728.894531 728.894531 L 20.894531 728.894531 Z M 20.894531 20.894531 "/></g><path style=" stroke:none;fill-rule:evenodd;fill:#6e81b6;fill-opacity:1;" d="M 374.894531 528.828125 C 542.652344 528.828125 678.644531 459.90625 678.644531 374.894531 C 678.644531 289.878906 542.652344 220.960938 374.894531 220.960938 C 207.136719 220.960938 71.140625 289.878906 71.140625 374.894531 C 71.140625 459.90625 207.136719 528.828125 374.894531 528.828125 Z M 374.894531 528.828125 "/><path style=" stroke:none;fill-rule:evenodd;fill:#ffffff;fill-opacity:1;" d="M 436.425781 424.648438 L 451.492188 347.101562 C 454.894531 329.601562 452.066406 316.546875 443.09375 308.296875 C 434.398438 300.316406 419.640625 296.433594 397.976562 296.433594 L 371.882812 296.433594 L 379.347656 258.011719 C 379.417969 257.65625 379.449219 257.292969 379.4375 256.929688 C 379.429688 256.566406 379.378906 256.207031 379.289062 255.855469 C 379.199219 255.5 379.074219 255.164062 378.910156 254.835938 C 378.742188 254.511719 378.546875 254.207031 378.316406 253.925781 C 378.082031 253.644531 377.824219 253.394531 377.535156 253.171875 C 377.25 252.945312 376.941406 252.757812 376.609375 252.601562 C 376.28125 252.445312 375.9375 252.328125 375.582031 252.25 C 375.226562 252.167969 374.867188 252.128906 374.503906 252.128906 L 338.488281 252.128906 C 336.125 252.128906 334.09375 253.808594 333.640625 256.128906 L 317.636719 338.453125 C 316.183594 329.1875 312.597656 321.226562 306.859375 314.65625 C 296.296875 302.5625 279.589844 296.433594 257.195312 296.433594 L 187.390625 296.433594 C 185.027344 296.433594 182.996094 298.113281 182.542969 300.429688 L 150.15625 467.066406 C 149.875 468.519531 150.253906 470.011719 151.195312 471.148438 C 152.128906 472.289062 153.527344 472.949219 155.007812 472.949219 L 191.304688 472.949219 C 193.667969 472.949219 195.699219 471.269531 196.152344 468.945312 L 203.988281 428.640625 L 231.003906 428.640625 C 245.183594 428.640625 257.097656 427.105469 266.398438 424.078125 C 275.90625 420.984375 284.660156 415.742188 292.375 408.519531 C 298.609375 402.792969 303.757812 396.378906 307.71875 389.464844 L 301.253906 422.757812 C 300.96875 424.207031 301.347656 425.707031 302.289062 426.835938 C 303.222656 427.980469 304.625 428.636719 306.101562 428.636719 L 342.113281 428.636719 C 344.480469 428.636719 346.511719 426.957031 346.964844 424.640625 L 364.738281 333.171875 L 389.449219 333.171875 C 399.980469 333.171875 403.066406 335.269531 403.90625 336.167969 C 404.667969 336.992188 406.246094 339.890625 404.472656 349.023438 L 390.148438 422.753906 C 390.078125 423.109375 390.050781 423.46875 390.058594 423.835938 C 390.070312 424.199219 390.121094 424.554688 390.210938 424.910156 C 390.300781 425.261719 390.429688 425.601562 390.59375 425.925781 C 390.757812 426.25 390.957031 426.550781 391.1875 426.832031 C 391.417969 427.113281 391.679688 427.367188 391.964844 427.589844 C 392.253906 427.8125 392.5625 428.003906 392.890625 428.15625 C 393.21875 428.3125 393.5625 428.433594 393.917969 428.511719 C 394.273438 428.59375 394.632812 428.632812 394.996094 428.632812 L 431.582031 428.632812 C 432.15625 428.632812 432.710938 428.539062 433.25 428.347656 C 433.789062 428.152344 434.277344 427.875 434.722656 427.511719 C 435.164062 427.148438 435.53125 426.71875 435.824219 426.226562 C 436.117188 425.738281 436.316406 425.210938 436.425781 424.648438 Z M 269.457031 360.574219 C 267.195312 372.199219 262.933594 380.492188 256.785156 385.21875 C 250.542969 390.03125 240.554688 392.472656 227.101562 392.472656 L 211.011719 392.472656 L 222.644531 332.609375 L 243.445312 332.609375 C 258.726562 332.609375 264.882812 335.875 267.355469 338.609375 C 270.78125 342.410156 271.507812 350.007812 269.457031 360.574219 Z M 588.128906 314.65625 C 577.566406 302.5625 560.859375 296.433594 538.464844 296.433594 L 468.660156 296.433594 C 466.292969 296.433594 464.265625 298.113281 463.8125 300.429688 L 431.433594 467.066406 C 431.144531 468.519531 431.523438 470.011719 432.464844 471.148438 C 433.40625 472.289062 434.804688 472.949219 436.273438 472.949219 L 472.574219 472.949219 C 474.941406 472.949219 476.96875 471.269531 477.421875 468.945312 L 485.257812 428.640625 L 512.277344 428.640625 C 526.460938 428.640625 538.363281 427.105469 547.667969 424.078125 C 557.183594 420.984375 565.933594 415.742188 573.644531 408.519531 C 580.078125 402.609375 585.371094 395.964844 589.382812 388.792969 C 593.394531 381.617188 596.269531 373.617188 597.949219 365.007812 C 602.074219 343.773438 598.773438 326.835938 588.128906 314.65625 Z M 552.789062 360.574219 C 550.523438 372.199219 546.261719 380.492188 540.121094 385.21875 C 533.871094 390.03125 523.886719 392.472656 510.433594 392.472656 L 494.34375 392.472656 L 505.972656 332.609375 L 526.777344 332.609375 C 542.054688 332.609375 548.210938 335.875 550.6875 338.609375 C 554.109375 342.410156 554.839844 350.007812 552.789062 360.574219 Z M 552.789062 360.574219 "/><path style=" stroke:none;fill-rule:evenodd;fill:#000000;fill-opacity:1;" d="M 243.445312 327.667969 C 257.234375 327.667969 266.429688 330.214844 271.023438 335.304688 C 275.613281 340.394531 276.707031 349.136719 274.308594 361.519531 C 271.792969 374.414062 266.960938 383.621094 259.796875 389.136719 C 252.636719 394.652344 241.734375 397.410156 227.101562 397.410156 L 205.019531 397.410156 L 218.570312 327.667969 Z M 155.003906 468.007812 L 191.300781 468.007812 L 199.914062 423.707031 L 231.003906 423.707031 C 244.722656 423.707031 256.011719 422.265625 264.871094 419.378906 C 273.730469 416.496094 281.785156 411.667969 289.03125 404.882812 C 295.113281 399.296875 300.035156 393.125 303.804688 386.382812 C 307.570312 379.636719 310.242188 372.199219 311.828125 364.066406 C 315.667969 344.3125 312.769531 328.925781 303.140625 317.90625 C 293.511719 306.882812 278.191406 301.375 257.195312 301.375 L 187.390625 301.375 Z M 338.484375 257.070312 L 374.5 257.070312 L 365.890625 301.375 L 397.976562 301.375 C 418.15625 301.375 432.089844 304.890625 439.75 311.933594 C 447.414062 318.972656 449.710938 330.386719 446.644531 346.164062 L 431.578125 423.707031 L 394.992188 423.707031 L 409.316406 349.976562 C 410.945312 341.585938 410.347656 335.867188 407.515625 332.816406 C 404.683594 329.765625 398.65625 328.238281 389.445312 328.238281 L 360.664062 328.238281 L 342.109375 423.707031 L 306.097656 423.707031 Z M 526.777344 327.667969 C 540.566406 327.667969 549.753906 330.214844 554.355469 335.304688 C 558.945312 340.394531 560.035156 349.136719 557.632812 361.519531 C 555.128906 374.414062 550.296875 383.621094 543.128906 389.136719 C 535.96875 394.652344 525.066406 397.410156 510.4375 397.410156 L 488.355469 397.410156 L 501.90625 327.667969 Z M 438.328125 468.007812 L 474.625 468.007812 L 483.238281 423.707031 L 514.328125 423.707031 C 528.050781 423.707031 539.339844 422.265625 548.199219 419.378906 C 557.058594 416.496094 565.113281 411.667969 572.359375 404.882812 C 578.441406 399.296875 583.363281 393.125 587.128906 386.382812 C 590.894531 379.636719 593.570312 372.199219 595.15625 364.066406 C 598.996094 344.3125 596.097656 328.925781 586.472656 317.90625 C 576.835938 306.882812 561.519531 301.375 540.519531 301.375 L 470.71875 301.375 Z M 438.328125 468.007812 "/></g></svg>