<svg xmlns="http://www.w3.org/2000/svg" xmlns:xlink="http://www.w3.org/1999/xlink" width="1000" zoomAndPan="magnify" viewBox="0 0 750 749.999995" height="1000" preserveAspectRatio="xMidYMid meet" version="1.2"><defs><clipPath id="b8bff23b4a"><path d="M 46.5 0 L 703.5 0 C 729.179688 0 750 20.820312 750 46.5 L 750 703.5 C 750 729.179688 729.179688 750 703.5 750 L 46.5 750 C 20.820312 750 0 729.179688 0 703.5 L 0 46.5 C 0 20.820312 20.820312 0 46.5 0 Z M 46.5 0 "/></clipPath><clipPath id="25b8c730b6"><path d="M 79 69.0625 L 671.769531 69.0625 L 671.769531 680 L 79 680 Z M 79 69.0625 "/></clipPath></defs><g id="5fd3b92028"><g clip-rule="nonzero" clip-path="url(#b8bff23b4a)"><rect x="0" width="750" y="0" height="749.999995" style="fill:#ffffff;fill-opacity:1;stroke:none;"/></g><g clip-rule="nonzero" clip-path="url(#25b8c730b6)"><path style=" stroke:none;fill-rule:nonzero;fill:#000000;fill-opacity:1;" d="M 669.46875 435.304688 C 665.914062 424.535156 656.59375 417.035156 644.546875 415.234375 C 638.863281 414.386719 632.355469 414.746094 624.65625 416.332031 C 611.234375 419.101562 601.273438 420.15625 594.007812 420.359375 C 621.4375 374.058594 643.742188 321.261719 656.582031 271.5625 C 677.347656 191.195312 666.25 154.585938 653.285156 138.023438 C 618.972656 94.191406 568.910156 70.644531 508.515625 69.925781 C 476.296875 69.53125 448.011719 75.890625 433.257812 80.464844 C 419.519531 78.039062 404.75 76.6875 389.25 76.4375 C 360.199219 75.972656 334.527344 82.304688 312.59375 95.320312 C 300.449219 91.214844 280.960938 85.425781 258.453125 81.734375 C 205.519531 73.046875 162.859375 79.816406 131.652344 101.855469 C 93.867188 128.539062 76.347656 174.902344 79.585938 239.652344 C 80.617188 260.210938 92.121094 322.761719 110.234375 382.085938 C 120.644531 416.183594 131.742188 444.5 143.226562 466.253906 C 159.511719 497.097656 176.933594 515.265625 196.496094 521.789062 C 207.457031 525.441406 227.378906 527.996094 248.332031 510.550781 C 250.984375 513.769531 254.53125 516.964844 259.230469 519.929688 C 265.203125 523.695312 272.503906 526.773438 279.796875 528.59375 C 306.078125 535.164062 330.695312 533.519531 351.699219 524.3125 C 351.828125 528.046875 351.929688 531.617188 352.011719 534.699219 C 352.152344 539.695312 352.289062 544.59375 352.472656 549.175781 C 353.71875 580.160156 355.828125 604.253906 362.074219 621.109375 C 362.417969 622.035156 362.878906 623.449219 363.367188 624.949219 C 366.480469 634.488281 371.695312 650.460938 384.953125 662.96875 C 398.683594 675.925781 415.292969 679.898438 430.503906 679.898438 C 438.132812 679.898438 445.414062 678.898438 451.796875 677.53125 C 474.554688 672.652344 500.398438 665.226562 519.097656 638.613281 C 536.773438 613.453125 545.367188 575.558594 546.921875 515.847656 C 547.121094 514.160156 547.308594 512.546875 547.484375 511.011719 L 547.855469 507.855469 L 552.019531 508.222656 L 553.09375 508.292969 C 576.273438 509.351562 604.613281 504.4375 622.019531 496.351562 C 635.773438 489.972656 679.847656 466.710938 669.472656 435.304688 "/></g><path style=" stroke:none;fill-rule:nonzero;fill:#336791;fill-opacity:1;" d="M 629.839844 441.414062 C 560.917969 455.625 556.179688 432.296875 556.179688 432.296875 C 628.945312 324.355469 659.367188 187.335938 633.117188 153.800781 C 561.5 62.328125 437.53125 105.589844 435.464844 106.710938 L 434.796875 106.832031 C 421.179688 104.003906 405.945312 102.324219 388.816406 102.042969 C 357.632812 101.53125 333.980469 110.214844 316.027344 123.824219 C 316.027344 123.824219 94.878906 32.742188 105.167969 238.371094 C 107.355469 282.117188 167.886719 569.371094 240.082031 482.605469 C 266.46875 450.878906 291.964844 424.054688 291.964844 424.054688 C 304.628906 432.460938 319.789062 436.753906 335.683594 435.210938 L 336.917969 434.164062 C 336.53125 438.105469 336.707031 441.957031 337.410156 446.519531 C 318.8125 467.292969 324.277344 470.9375 287.097656 478.589844 C 249.476562 486.34375 271.574219 500.140625 286.007812 503.75 C 303.5 508.121094 343.972656 514.316406 371.316406 476.046875 L 370.226562 480.414062 C 377.511719 486.25 382.628906 518.371094 381.773438 547.488281 C 380.914062 576.605469 380.34375 596.597656 386.082031 612.210938 C 391.828125 627.824219 397.550781 662.957031 446.425781 652.488281 C 487.265625 643.738281 508.429688 621.066406 511.375 583.242188 C 513.464844 556.355469 518.195312 560.328125 518.492188 536.289062 L 522.285156 524.910156 C 526.65625 488.460938 522.980469 476.699219 548.140625 482.171875 L 554.257812 482.707031 C 572.773438 483.550781 597.011719 479.730469 611.238281 473.117188 C 641.871094 458.90625 660.039062 435.179688 629.835938 441.414062 L 629.839844 441.414062 "/><path style=" stroke:none;fill-rule:nonzero;fill:#ffffff;fill-opacity:1;" d="M 328.972656 257.933594 C 322.761719 257.070312 317.136719 257.871094 314.292969 260.023438 C 312.695312 261.234375 312.199219 262.640625 312.0625 263.605469 C 311.707031 266.164062 313.5 268.996094 314.601562 270.457031 C 317.722656 274.589844 322.277344 277.429688 326.789062 278.054688 C 327.441406 278.148438 328.09375 278.191406 328.738281 278.191406 C 336.257812 278.191406 343.097656 272.335938 343.699219 268.015625 C 344.453125 262.601562 336.59375 258.996094 328.972656 257.9375 M 534.71875 258.105469 C 534.125 253.863281 526.578125 252.65625 519.410156 253.652344 C 512.253906 254.648438 505.316406 257.875 505.894531 262.128906 C 506.359375 265.433594 512.332031 271.078125 519.398438 271.078125 C 519.996094 271.078125 520.601562 271.039062 521.207031 270.953125 C 525.925781 270.300781 529.386719 267.304688 531.03125 265.578125 C 533.535156 262.945312 534.984375 260.011719 534.71875 258.105469 "/><path style=" stroke:none;fill-rule:nonzero;fill:#ffffff;fill-opacity:1;" d="M 652.773438 439.796875 C 650.144531 431.851562 641.683594 429.296875 627.632812 432.199219 C 585.910156 440.808594 570.964844 434.84375 566.058594 431.234375 C 598.492188 381.839844 625.171875 322.132812 639.566406 266.425781 C 646.382812 240.039062 650.148438 215.535156 650.457031 195.558594 C 650.796875 173.636719 647.0625 157.523438 639.359375 147.683594 C 608.300781 108.011719 562.71875 86.726562 507.542969 86.144531 C 469.609375 85.71875 437.558594 95.421875 431.34375 98.152344 C 418.261719 94.898438 404 92.902344 388.46875 92.648438 C 359.992188 92.1875 335.378906 99.003906 315 112.894531 C 306.148438 109.601562 283.269531 101.75 255.292969 97.242188 C 206.921875 89.460938 168.488281 95.359375 141.058594 114.785156 C 108.332031 137.964844 93.222656 179.402344 96.148438 237.941406 C 97.132812 257.636719 108.359375 318.222656 126.070312 376.246094 C 149.390625 452.613281 174.738281 495.847656 201.40625 504.738281 C 204.527344 505.78125 208.125 506.507812 212.097656 506.507812 C 221.824219 506.507812 233.75 502.125 246.160156 487.210938 C 261.300781 469.054688 276.953125 451.347656 293.113281 434.097656 C 303.597656 439.722656 315.113281 442.863281 326.894531 443.175781 C 326.917969 443.484375 326.949219 443.792969 326.976562 444.101562 C 324.949219 446.515625 322.960938 448.96875 321.019531 451.457031 C 312.859375 461.8125 311.160156 463.96875 284.886719 469.378906 C 277.414062 470.921875 257.566406 475.007812 257.273438 488.917969 C 256.957031 504.117188 280.738281 510.5 283.445312 511.175781 C 292.886719 513.539062 301.984375 514.703125 310.65625 514.703125 C 331.75 514.703125 350.316406 507.773438 365.152344 494.359375 C 364.695312 548.539062 366.953125 601.925781 373.460938 618.191406 C 378.792969 631.507812 391.8125 664.050781 432.933594 664.050781 C 438.96875 664.050781 445.613281 663.347656 452.917969 661.78125 C 495.839844 652.585938 514.476562 633.621094 521.6875 591.808594 C 525.546875 569.464844 532.164062 516.109375 535.28125 487.488281 C 541.851562 489.539062 550.3125 490.476562 559.460938 490.472656 C 578.535156 490.472656 600.550781 486.421875 614.355469 480.015625 C 629.863281 472.816406 657.847656 455.148438 652.773438 439.796875 Z M 550.5625 246.398438 C 550.417969 254.847656 549.257812 262.515625 548.023438 270.523438 C 546.695312 279.136719 545.324219 288.039062 544.980469 298.84375 C 544.636719 309.363281 545.953125 320.296875 547.222656 330.875 C 549.789062 352.234375 552.425781 374.226562 542.226562 395.921875 C 540.53125 392.917969 539.023438 389.824219 537.707031 386.636719 C 536.4375 383.5625 533.6875 378.628906 529.875 371.800781 C 515.046875 345.210938 480.320312 282.953125 498.09375 257.546875 C 503.390625 249.984375 516.828125 242.210938 550.5625 246.398438 Z M 509.671875 103.253906 C 559.113281 104.34375 598.21875 122.835938 625.910156 158.207031 C 647.144531 185.335938 623.761719 308.789062 556.0625 415.292969 C 555.382812 414.425781 554.699219 413.5625 554.007812 412.703125 L 553.152344 411.632812 C 570.644531 382.75 567.226562 354.171875 564.179688 328.835938 C 562.929688 318.441406 561.746094 308.621094 562.046875 299.394531 C 562.359375 289.617188 563.652344 281.230469 564.902344 273.121094 C 566.441406 263.128906 568.003906 252.792969 567.574219 240.601562 C 567.894531 239.324219 568.023438 237.8125 567.855469 236.019531 C 566.753906 224.332031 553.40625 189.351562 526.199219 157.691406 C 511.320312 140.375 489.617188 120.996094 459.984375 107.925781 C 472.730469 105.28125 490.160156 102.820312 509.671875 103.253906 Z M 233.027344 476.292969 C 219.355469 492.726562 209.914062 489.578125 206.808594 488.542969 C 186.578125 481.796875 163.105469 439.050781 142.40625 371.261719 C 124.5 312.605469 114.035156 253.625 113.203125 237.085938 C 110.589844 184.777344 123.273438 148.324219 150.902344 128.734375 C 195.871094 96.855469 269.796875 115.9375 299.503906 125.613281 C 299.078125 126.035156 298.632812 126.429688 298.210938 126.859375 C 249.464844 176.074219 250.621094 260.164062 250.742188 265.304688 C 250.734375 267.285156 250.902344 270.09375 251.128906 273.957031 C 251.96875 288.101562 253.53125 314.421875 249.359375 344.234375 C 245.484375 371.933594 254.027344 399.046875 272.789062 418.621094 C 274.71875 420.625 276.738281 422.53125 278.855469 424.339844 C 270.503906 433.28125 252.351562 453.054688 233.027344 476.292969 Z M 285.121094 406.808594 C 269.996094 391.03125 263.128906 369.085938 266.273438 346.59375 C 270.675781 315.105469 269.050781 287.679688 268.179688 272.945312 C 268.054688 270.886719 267.945312 269.078125 267.882812 267.652344 C 275.003906 261.339844 308.007812 243.664062 331.542969 249.054688 C 342.28125 251.511719 348.824219 258.824219 351.546875 271.398438 C 365.628906 336.507812 353.410156 363.640625 343.59375 385.449219 C 341.570312 389.941406 339.660156 394.1875 338.027344 398.582031 L 336.761719 401.976562 C 333.558594 410.5625 330.578125 418.546875 328.730469 426.125 C 312.652344 426.082031 297.015625 419.214844 285.121094 406.804688 Z M 287.589844 494.609375 C 282.894531 493.4375 278.671875 491.402344 276.195312 489.714844 C 278.265625 488.742188 281.945312 487.414062 288.332031 486.097656 C 319.238281 479.738281 324.015625 475.25 334.4375 462.019531 C 336.828125 458.984375 339.535156 455.546875 343.289062 451.359375 L 343.292969 451.351562 C 348.878906 445.097656 351.433594 446.160156 356.070312 448.082031 C 359.828125 449.632812 363.484375 454.34375 364.96875 459.523438 C 365.671875 461.96875 366.460938 466.609375 363.878906 470.226562 C 342.105469 500.703125 310.375 500.3125 287.589844 494.609375 Z M 449.339844 645.085938 C 411.53125 653.1875 398.140625 633.898438 389.320312 611.851562 C 383.625 597.617188 380.828125 533.429688 382.8125 462.546875 C 382.839844 461.601562 382.703125 460.691406 382.445312 459.835938 C 382.210938 458.140625 381.859375 456.46875 381.386719 454.824219 C 378.433594 444.511719 371.238281 435.882812 362.609375 432.308594 C 359.179688 430.886719 352.882812 428.28125 345.320312 430.214844 C 346.933594 423.570312 349.730469 416.066406 352.761719 407.941406 L 354.035156 404.523438 C 355.46875 400.671875 357.265625 396.679688 359.167969 392.457031 C 369.4375 369.640625 383.507812 338.390625 368.238281 267.792969 C 362.519531 241.347656 343.417969 228.4375 314.464844 231.4375 C 297.109375 233.230469 281.226562 240.230469 273.308594 244.246094 C 271.605469 245.109375 270.046875 245.941406 268.589844 246.753906 C 270.800781 220.113281 279.152344 170.320312 310.398438 138.816406 C 330.070312 118.988281 356.265625 109.191406 388.1875 109.71875 C 451.082031 110.75 491.414062 143.015625 514.171875 169.90625 C 533.789062 193.074219 544.410156 216.417969 548.648438 229.003906 C 516.769531 225.765625 495.09375 232.054688 484.101562 247.761719 C 460.195312 281.929688 497.183594 348.242188 514.960938 380.113281 C 518.21875 385.953125 521.03125 391.003906 521.917969 393.148438 C 527.707031 407.171875 535.203125 416.539062 540.671875 423.371094 C 542.351562 425.464844 543.976562 427.496094 545.214844 429.273438 C 535.5625 432.054688 518.21875 438.484375 519.800781 470.621094 C 518.527344 486.742188 509.460938 562.238281 504.859375 588.910156 C 498.78125 624.144531 485.808594 637.269531 449.339844 645.089844 Z M 607.164062 464.53125 C 597.292969 469.109375 580.769531 472.546875 565.078125 473.285156 C 547.742188 474.097656 538.917969 471.34375 536.84375 469.652344 C 535.867188 449.625 543.324219 447.53125 551.214844 445.316406 C 552.453125 444.972656 553.664062 444.628906 554.832031 444.222656 C 555.558594 444.8125 556.351562 445.398438 557.222656 445.972656 C 571.15625 455.167969 596.003906 456.15625 631.089844 448.917969 L 631.472656 448.84375 C 626.742188 453.265625 618.644531 459.199219 607.164062 464.53125 Z M 607.164062 464.53125 "/></g></svg>