<svg xmlns="http://www.w3.org/2000/svg" xmlns:xlink="http://www.w3.org/1999/xlink" width="1000" zoomAndPan="magnify" viewBox="0 0 750 749.999995" height="1000" preserveAspectRatio="xMidYMid meet" version="1.2"><defs><clipPath id="fd035c8810"><path d="M 46.5 0 L 703.5 0 C 729.179688 0 750 20.820312 750 46.5 L 750 703.5 C 750 729.179688 729.179688 750 703.5 750 L 46.5 750 C 20.820312 750 0 729.179688 0 703.5 L 0 46.5 C 0 20.820312 20.820312 0 46.5 0 Z M 46.5 0 "/></clipPath><clipPath id="3b355cffe4"><path d="M 18 57.097656 L 732 57.097656 L 732 693 L 18 693 Z M 18 57.097656 "/></clipPath></defs><g id="fd9fa260c9"><g clip-rule="nonzero" clip-path="url(#fd035c8810)"><rect x="0" width="750" y="0" height="749.999995" style="fill:#ffffff;fill-opacity:1;stroke:none;"/></g><g clip-rule="nonzero" clip-path="url(#3b355cffe4)"><path style=" stroke:none;fill-rule:nonzero;fill:#00c1ff;fill-opacity:1;" d="M 731.609375 374.910156 C 731.609375 327.640625 672.410156 282.839844 581.648438 255.058594 C 602.59375 162.550781 593.285156 88.953125 552.269531 65.390625 C 542.8125 59.863281 531.761719 57.246094 519.6875 57.246094 L 519.6875 89.679688 C 526.378906 89.679688 531.761719 90.988281 536.269531 93.460938 C 556.050781 104.808594 564.632812 148.007812 557.941406 203.570312 C 556.339844 217.242188 553.722656 231.640625 550.523438 246.332031 C 522.015625 239.351562 490.886719 233.96875 458.160156 230.476562 C 438.527344 203.570312 418.164062 179.132812 397.652344 157.75 C 445.070312 113.679688 489.578125 89.535156 519.832031 89.535156 L 519.832031 57.097656 C 479.832031 57.097656 427.472656 85.609375 374.527344 135.0625 C 321.582031 85.898438 269.21875 57.679688 229.222656 57.679688 L 229.222656 90.117188 C 259.328125 90.117188 303.984375 114.117188 351.398438 157.898438 C 331.035156 179.277344 310.671875 203.570312 291.328125 230.476562 C 258.457031 233.96875 227.332031 239.351562 198.820312 246.476562 C 195.476562 231.933594 193.003906 217.824219 191.257812 204.296875 C 184.421875 148.734375 192.859375 105.535156 212.492188 94.042969 C 216.859375 91.425781 222.53125 90.261719 229.222656 90.261719 L 229.222656 57.828125 C 217.003906 57.828125 205.949219 60.445312 196.347656 65.972656 C 155.476562 89.535156 146.3125 162.988281 167.402344 255.203125 C 76.933594 283.132812 18.023438 327.785156 18.023438 374.910156 C 18.023438 422.183594 77.222656 466.980469 167.984375 494.761719 C 147.039062 587.269531 156.351562 660.867188 197.367188 684.433594 C 206.820312 689.957031 217.875 692.578125 230.09375 692.578125 C 270.09375 692.578125 322.457031 664.070312 375.398438 614.613281 C 428.34375 663.777344 480.707031 691.996094 520.707031 691.996094 C 532.921875 691.996094 543.976562 689.378906 553.578125 683.851562 C 594.449219 660.285156 603.613281 586.832031 582.523438 494.617188 C 672.703125 466.835938 731.609375 422.035156 731.609375 374.910156 Z M 542.234375 277.894531 C 536.851562 296.65625 530.160156 316.003906 522.597656 335.347656 C 516.632812 323.710938 510.378906 312.074219 503.542969 300.441406 C 496.851562 288.804688 489.722656 277.457031 482.597656 266.402344 C 503.25 269.457031 523.179688 273.242188 542.234375 277.894531 Z M 475.617188 432.800781 C 464.269531 452.4375 452.632812 471.054688 440.5625 488.363281 C 418.890625 490.253906 396.925781 491.273438 374.816406 491.273438 C 352.855469 491.273438 330.890625 490.253906 309.363281 488.507812 C 297.292969 471.199219 285.511719 452.726562 274.164062 433.238281 C 263.109375 414.183594 253.074219 394.835938 243.910156 375.347656 C 252.929688 355.855469 263.109375 336.367188 274.019531 317.3125 C 285.363281 297.675781 297 279.058594 309.074219 261.75 C 330.746094 259.859375 352.710938 258.839844 374.816406 258.839844 C 396.78125 258.839844 418.746094 259.859375 440.269531 261.605469 C 452.34375 278.914062 464.125 297.386719 475.46875 316.875 C 486.523438 335.929688 496.5625 355.273438 505.722656 374.765625 C 496.5625 394.257812 486.523438 413.746094 475.617188 432.800781 Z M 522.597656 413.890625 C 530.449219 433.382812 537.140625 452.871094 542.667969 471.78125 C 523.613281 476.4375 503.542969 480.363281 482.742188 483.417969 C 489.871094 472.21875 496.996094 460.726562 503.6875 448.945312 C 510.378906 437.308594 516.632812 425.527344 522.597656 413.890625 Z M 375.109375 569.089844 C 361.582031 555.125 348.054688 539.5625 334.671875 522.542969 C 347.765625 523.125 361.144531 523.5625 374.671875 523.5625 C 388.34375 523.5625 401.871094 523.269531 415.109375 522.542969 C 402.015625 539.5625 388.492188 555.125 375.109375 569.089844 Z M 266.894531 483.417969 C 246.238281 480.363281 226.3125 476.582031 207.257812 471.925781 C 212.640625 453.164062 219.332031 433.820312 226.894531 414.472656 C 232.855469 426.109375 239.113281 437.746094 245.949219 449.382812 C 252.785156 461.019531 259.765625 472.363281 266.894531 483.417969 Z M 374.382812 180.734375 C 387.910156 194.695312 401.433594 210.257812 414.816406 227.277344 C 401.726562 226.695312 388.34375 226.257812 374.816406 226.257812 C 361.144531 226.257812 347.617188 226.550781 334.382812 227.277344 C 347.472656 210.257812 361 194.695312 374.382812 180.734375 Z M 266.746094 266.402344 C 259.621094 277.605469 252.492188 289.09375 245.800781 300.875 C 239.113281 312.511719 232.855469 324.148438 226.894531 335.785156 C 219.039062 316.292969 212.347656 296.804688 206.820312 277.894531 C 225.875 273.386719 245.949219 269.457031 266.746094 266.402344 Z M 135.113281 448.507812 C 83.625 426.546875 50.316406 397.746094 50.316406 374.910156 C 50.316406 352.074219 83.625 323.128906 135.113281 301.3125 C 147.621094 295.929688 161.292969 291.128906 175.402344 286.621094 C 183.695312 315.128906 194.601562 344.800781 208.128906 375.203125 C 194.75 405.457031 183.984375 434.980469 175.839844 463.34375 C 161.441406 458.835938 147.769531 453.890625 135.113281 448.507812 Z M 213.367188 656.359375 C 193.585938 645.015625 185.003906 601.816406 191.695312 546.253906 C 193.292969 532.582031 195.914062 518.179688 199.113281 503.488281 C 227.621094 510.472656 258.746094 515.851562 291.472656 519.34375 C 311.109375 546.253906 331.472656 570.6875 351.980469 592.070312 C 304.566406 636.140625 260.054688 660.285156 229.800781 660.285156 C 223.257812 660.140625 217.730469 658.832031 213.367188 656.359375 Z M 558.378906 545.527344 C 565.214844 601.089844 556.777344 644.285156 537.140625 655.777344 C 532.777344 658.394531 527.105469 659.558594 520.414062 659.558594 C 490.304688 659.558594 445.652344 635.558594 398.234375 591.777344 C 418.597656 570.398438 438.960938 546.105469 458.308594 519.199219 C 491.179688 515.707031 522.304688 510.328125 550.8125 503.199219 C 554.160156 517.890625 556.777344 532 558.378906 545.527344 Z M 614.375 448.507812 C 601.867188 453.890625 588.195312 458.691406 574.085938 463.199219 C 565.796875 434.691406 554.886719 405.019531 541.359375 374.621094 C 554.742188 344.367188 565.503906 314.839844 573.648438 286.476562 C 588.050781 290.984375 601.722656 295.929688 614.523438 301.3125 C 666.011719 323.277344 699.320312 352.074219 699.320312 374.910156 C 699.175781 397.746094 665.867188 426.691406 614.375 448.507812 Z M 614.375 448.507812 "/></g><path style=" stroke:none;fill-rule:nonzero;fill:#00c1ff;fill-opacity:1;" d="M 441.144531 374.910156 C 441.144531 376 441.117188 377.085938 441.0625 378.171875 C 441.011719 379.257812 440.929688 380.34375 440.824219 381.425781 C 440.71875 382.507812 440.582031 383.589844 440.425781 384.664062 C 440.265625 385.742188 440.078125 386.8125 439.867188 387.878906 C 439.652344 388.945312 439.414062 390.007812 439.152344 391.0625 C 438.886719 392.117188 438.597656 393.164062 438.28125 394.207031 C 437.964844 395.246094 437.625 396.28125 437.257812 397.304688 C 436.890625 398.328125 436.5 399.34375 436.082031 400.347656 C 435.667969 401.351562 435.226562 402.347656 434.761719 403.332031 C 434.296875 404.3125 433.808594 405.285156 433.292969 406.246094 C 432.78125 407.203125 432.246094 408.152344 431.6875 409.082031 C 431.128906 410.015625 430.546875 410.9375 429.941406 411.839844 C 429.335938 412.746094 428.710938 413.632812 428.0625 414.507812 C 427.414062 415.382812 426.746094 416.238281 426.054688 417.078125 C 425.363281 417.921875 424.65625 418.746094 423.925781 419.550781 C 423.195312 420.355469 422.445312 421.144531 421.675781 421.914062 C 420.90625 422.683594 420.117188 423.433594 419.3125 424.164062 C 418.503906 424.894531 417.683594 425.605469 416.839844 426.292969 C 416 426.984375 415.144531 427.652344 414.269531 428.300781 C 413.394531 428.949219 412.507812 429.574219 411.601562 430.179688 C 410.695312 430.785156 409.777344 431.367188 408.84375 431.925781 C 407.914062 432.484375 406.964844 433.019531 406.007812 433.535156 C 405.046875 434.046875 404.074219 434.535156 403.09375 435 C 402.109375 435.464844 401.113281 435.90625 400.109375 436.324219 C 399.105469 436.738281 398.089844 437.128906 397.066406 437.496094 C 396.042969 437.863281 395.007812 438.203125 393.96875 438.519531 C 392.925781 438.835938 391.878906 439.125 390.824219 439.390625 C 389.769531 439.65625 388.707031 439.894531 387.640625 440.105469 C 386.574219 440.316406 385.5 440.503906 384.425781 440.664062 C 383.347656 440.824219 382.269531 440.957031 381.1875 441.0625 C 380.105469 441.167969 379.019531 441.25 377.933594 441.300781 C 376.847656 441.355469 375.761719 441.382812 374.671875 441.382812 C 373.585938 441.382812 372.496094 441.355469 371.410156 441.300781 C 370.324219 441.25 369.238281 441.167969 368.15625 441.0625 C 367.074219 440.957031 365.996094 440.824219 364.917969 440.664062 C 363.84375 440.503906 362.769531 440.316406 361.703125 440.105469 C 360.636719 439.894531 359.578125 439.65625 358.519531 439.390625 C 357.464844 439.125 356.417969 438.835938 355.375 438.519531 C 354.335938 438.203125 353.304688 437.863281 352.277344 437.496094 C 351.253906 437.128906 350.238281 436.738281 349.234375 436.324219 C 348.230469 435.90625 347.234375 435.464844 346.253906 435 C 345.269531 434.535156 344.296875 434.046875 343.335938 433.535156 C 342.378906 433.019531 341.433594 432.484375 340.5 431.925781 C 339.566406 431.367188 338.648438 430.785156 337.742188 430.179688 C 336.839844 429.574219 335.949219 428.949219 335.074219 428.300781 C 334.203125 427.652344 333.34375 426.984375 332.503906 426.292969 C 331.664062 425.605469 330.839844 424.894531 330.03125 424.164062 C 329.226562 423.433594 328.4375 422.683594 327.671875 421.914062 C 326.902344 421.144531 326.152344 420.355469 325.421875 419.550781 C 324.691406 418.746094 323.980469 417.921875 323.289062 417.078125 C 322.597656 416.238281 321.929688 415.382812 321.28125 414.507812 C 320.632812 413.632812 320.007812 412.746094 319.402344 411.839844 C 318.800781 410.9375 318.21875 410.015625 317.65625 409.082031 C 317.097656 408.152344 316.5625 407.203125 316.050781 406.246094 C 315.535156 405.285156 315.046875 404.3125 314.582031 403.332031 C 314.117188 402.347656 313.675781 401.351562 313.261719 400.347656 C 312.84375 399.34375 312.453125 398.328125 312.085938 397.304688 C 311.71875 396.28125 311.378906 395.246094 311.0625 394.207031 C 310.746094 393.164062 310.457031 392.117188 310.191406 391.0625 C 309.929688 390.007812 309.691406 388.945312 309.476562 387.878906 C 309.265625 386.8125 309.078125 385.742188 308.921875 384.664062 C 308.761719 383.589844 308.628906 382.507812 308.519531 381.425781 C 308.414062 380.34375 308.335938 379.257812 308.28125 378.171875 C 308.226562 377.085938 308.199219 376 308.199219 374.910156 C 308.199219 373.824219 308.226562 372.734375 308.28125 371.648438 C 308.335938 370.5625 308.414062 369.476562 308.519531 368.394531 C 308.628906 367.3125 308.761719 366.234375 308.921875 365.15625 C 309.078125 364.082031 309.265625 363.011719 309.476562 361.941406 C 309.691406 360.875 309.929688 359.816406 310.191406 358.757812 C 310.457031 357.703125 310.746094 356.65625 311.0625 355.617188 C 311.378906 354.574219 311.71875 353.542969 312.085938 352.515625 C 312.453125 351.492188 312.84375 350.476562 313.261719 349.472656 C 313.675781 348.46875 314.117188 347.472656 314.582031 346.492188 C 315.046875 345.507812 315.535156 344.535156 316.050781 343.578125 C 316.5625 342.617188 317.097656 341.671875 317.65625 340.738281 C 318.21875 339.804688 318.800781 338.886719 319.402344 337.980469 C 320.007812 337.078125 320.632812 336.1875 321.28125 335.3125 C 321.929688 334.441406 322.597656 333.582031 323.289062 332.742188 C 323.980469 331.902344 324.691406 331.078125 325.421875 330.269531 C 326.152344 329.464844 326.902344 328.675781 327.671875 327.910156 C 328.4375 327.140625 329.226562 326.390625 330.03125 325.660156 C 330.839844 324.929688 331.664062 324.21875 332.503906 323.527344 C 333.34375 322.835938 334.203125 322.167969 335.074219 321.519531 C 335.949219 320.871094 336.839844 320.246094 337.742188 319.640625 C 338.648438 319.039062 339.566406 318.457031 340.5 317.898438 C 341.433594 317.335938 342.378906 316.800781 343.335938 316.289062 C 344.296875 315.777344 345.269531 315.285156 346.253906 314.820312 C 347.234375 314.355469 348.230469 313.914062 349.234375 313.5 C 350.238281 313.082031 351.253906 312.691406 352.277344 312.324219 C 353.304688 311.957031 354.335938 311.617188 355.375 311.300781 C 356.417969 310.984375 357.464844 310.695312 358.519531 310.429688 C 359.578125 310.167969 360.636719 309.929688 361.703125 309.714844 C 362.769531 309.503906 363.84375 309.320312 364.917969 309.160156 C 365.996094 309 367.074219 308.867188 368.15625 308.757812 C 369.238281 308.652344 370.324219 308.574219 371.410156 308.519531 C 372.496094 308.464844 373.585938 308.441406 374.671875 308.441406 C 375.761719 308.441406 376.847656 308.464844 377.933594 308.519531 C 379.019531 308.574219 380.105469 308.652344 381.1875 308.757812 C 382.269531 308.867188 383.347656 309 384.425781 309.160156 C 385.5 309.320312 386.574219 309.503906 387.640625 309.714844 C 388.707031 309.929688 389.769531 310.167969 390.824219 310.429688 C 391.878906 310.695312 392.925781 310.984375 393.96875 311.300781 C 395.007812 311.617188 396.042969 311.957031 397.066406 312.324219 C 398.089844 312.691406 399.105469 313.082031 400.109375 313.5 C 401.113281 313.914062 402.109375 314.355469 403.09375 314.820312 C 404.074219 315.285156 405.046875 315.777344 406.007812 316.289062 C 406.964844 316.800781 407.914062 317.335938 408.84375 317.898438 C 409.777344 318.457031 410.695312 319.039062 411.601562 319.640625 C 412.507812 320.246094 413.394531 320.871094 414.269531 321.519531 C 415.144531 322.167969 416 322.835938 416.839844 323.527344 C 417.683594 324.21875 418.503906 324.929688 419.3125 325.660156 C 420.117188 326.390625 420.90625 327.140625 421.675781 327.910156 C 422.445312 328.675781 423.195312 329.464844 423.925781 330.269531 C 424.65625 331.078125 425.363281 331.902344 426.054688 332.742188 C 426.746094 333.582031 427.414062 334.441406 428.0625 335.3125 C 428.710938 336.1875 429.335938 337.078125 429.941406 337.980469 C 430.546875 338.886719 431.128906 339.804688 431.6875 340.738281 C 432.246094 341.671875 432.78125 342.617188 433.292969 343.578125 C 433.808594 344.535156 434.296875 345.507812 434.761719 346.492188 C 435.226562 347.472656 435.667969 348.46875 436.082031 349.472656 C 436.5 350.476562 436.890625 351.492188 437.257812 352.515625 C 437.625 353.542969 437.964844 354.574219 438.28125 355.617188 C 438.597656 356.65625 438.886719 357.703125 439.152344 358.757812 C 439.414062 359.816406 439.652344 360.875 439.867188 361.941406 C 440.078125 363.011719 440.265625 364.082031 440.425781 365.15625 C 440.582031 366.234375 440.71875 367.3125 440.824219 368.394531 C 440.929688 369.476562 441.011719 370.5625 441.0625 371.648438 C 441.117188 372.734375 441.144531 373.824219 441.144531 374.910156 Z M 441.144531 374.910156 "/></g></svg>