<svg xmlns="http://www.w3.org/2000/svg" xmlns:xlink="http://www.w3.org/1999/xlink" width="1000" zoomAndPan="magnify" viewBox="0 0 750 749.999995" height="1000" preserveAspectRatio="xMidYMid meet" version="1.2"><defs><clipPath id="25fac0893d"><path d="M 46.5 0 L 703.5 0 C 729.179688 0 750 20.820312 750 46.5 L 750 703.5 C 750 729.179688 729.179688 750 703.5 750 L 46.5 750 C 20.820312 750 0 729.179688 0 703.5 L 0 46.5 C 0 20.820312 20.820312 0 46.5 0 Z M 46.5 0 "/></clipPath><clipPath id="034897d97f"><path d="M 61.109375 186.667969 L 688.859375 186.667969 L 688.859375 563.167969 L 61.109375 563.167969 Z M 61.109375 186.667969 "/></clipPath></defs><g id="aacb853400"><g clip-rule="nonzero" clip-path="url(#25fac0893d)"><rect x="0" width="750" y="0" height="749.999995" style="fill:#ffffff;fill-opacity:1;stroke:none;"/></g><g clip-rule="nonzero" clip-path="url(#034897d97f)"><path style=" stroke:none;fill-rule:nonzero;fill:#06b6d4;fill-opacity:1;" d="M 374.984375 186.71875 C 291.28125 186.71875 238.972656 228.539062 218.042969 312.179688 C 249.433594 270.355469 286.054688 254.675781 327.902344 265.128906 C 351.78125 271.09375 368.847656 288.410156 387.742188 307.570312 C 418.511719 338.785156 454.128906 374.914062 531.925781 374.914062 C 615.621094 374.914062 667.941406 333.089844 688.859375 249.445312 C 657.476562 291.265625 620.859375 306.953125 579.003906 296.5 C 555.132812 290.535156 538.066406 273.21875 519.171875 254.058594 C 488.398438 222.84375 452.777344 186.71875 374.984375 186.71875 Z M 218.042969 374.914062 C 134.347656 374.914062 82.03125 416.734375 61.109375 500.378906 C 92.492188 458.558594 129.113281 442.871094 170.96875 453.332031 C 194.839844 459.304688 211.90625 476.613281 230.800781 495.765625 C 261.570312 526.980469 297.195312 563.113281 374.984375 563.113281 C 458.6875 563.113281 511 521.292969 531.925781 437.644531 C 500.535156 479.46875 463.917969 495.15625 422.070312 484.695312 C 398.191406 478.738281 381.125 461.414062 362.230469 442.261719 C 331.457031 411.046875 295.84375 374.914062 218.042969 374.914062 Z M 218.042969 374.914062 "/></g></g></svg>