<svg xmlns="http://www.w3.org/2000/svg" xmlns:xlink="http://www.w3.org/1999/xlink" width="1000" zoomAndPan="magnify" viewBox="0 0 750 749.999995" height="1000" preserveAspectRatio="xMidYMid meet" version="1.2"><g id="a73a50c2e2"><rect x="0" width="750" y="0" height="749.999995" style="fill:#017acb;fill-opacity:1;stroke:none;"/><path style=" stroke:none;fill-rule:nonzero;fill:#ffffff;fill-opacity:1;" d="M 360.117188 277.734375 L 396.09375 277.734375 L 396.09375 339.84375 L 298.828125 339.84375 L 298.828125 616.171875 L 296.25 616.875 C 292.734375 617.8125 246.445312 617.8125 236.484375 616.757812 L 228.515625 616.054688 L 228.515625 339.84375 L 131.25 339.84375 L 131.25 277.734375 L 162.070312 277.382812 C 178.945312 277.148438 222.304688 277.148438 258.398438 277.382812 C 294.492188 277.617188 340.195312 277.734375 360.117188 277.734375 Z M 634.6875 586.875 C 620.390625 601.992188 605.039062 610.429688 579.492188 617.34375 C 568.359375 620.390625 566.484375 620.507812 541.40625 620.390625 C 516.328125 620.273438 514.335938 620.273438 502.148438 617.109375 C 470.625 609.023438 445.195312 593.203125 427.851562 570.820312 C 422.929688 564.492188 414.84375 551.367188 414.84375 549.726562 C 414.84375 549.257812 416.015625 548.203125 417.539062 547.5 C 419.0625 546.796875 422.226562 544.804688 424.804688 543.28125 C 427.382812 541.757812 432.070312 538.945312 435.234375 537.304688 C 438.398438 535.664062 447.539062 530.273438 455.507812 525.46875 C 463.476562 520.664062 470.742188 516.796875 471.5625 516.796875 C 472.382812 516.796875 473.90625 518.4375 475.078125 520.429688 C 482.109375 532.265625 498.515625 547.382812 510.117188 552.539062 C 517.265625 555.585938 533.085938 558.984375 540.703125 558.984375 C 547.734375 558.984375 560.625 555.9375 567.539062 552.773438 C 574.921875 549.375 578.671875 545.976562 583.125 539.179688 C 586.171875 534.375 586.523438 533.085938 586.40625 523.945312 C 586.40625 515.507812 585.9375 513.164062 583.59375 509.296875 C 577.03125 498.515625 568.125 492.890625 532.03125 476.953125 C 494.765625 460.429688 478.007812 450.585938 464.414062 437.34375 C 454.335938 427.5 452.34375 424.804688 446.015625 412.5 C 437.8125 396.679688 436.757812 391.523438 436.640625 367.96875 C 436.523438 351.445312 436.875 346.054688 438.632812 340.429688 C 441.09375 331.992188 449.0625 315.703125 452.695312 311.601562 C 460.195312 302.8125 462.890625 300.117188 468.164062 295.78125 C 484.101562 282.65625 508.945312 273.984375 532.734375 273.164062 C 535.429688 273.164062 544.335938 273.632812 552.65625 274.21875 C 576.5625 276.210938 592.851562 282.070312 608.554688 294.609375 C 620.390625 303.984375 638.320312 326.015625 636.5625 328.945312 C 635.390625 330.703125 588.632812 361.875 585.585938 362.8125 C 583.710938 363.398438 582.421875 362.695312 579.84375 359.648438 C 563.90625 340.546875 557.460938 336.445312 541.992188 335.507812 C 530.976562 334.804688 525.117188 336.09375 517.734375 341.015625 C 510 346.171875 506.25 354.023438 506.25 364.921875 C 506.367188 380.859375 512.460938 388.359375 534.960938 399.492188 C 549.492188 406.640625 561.914062 412.5 562.851562 412.5 C 564.257812 412.5 594.375 427.5 602.226562 432.1875 C 638.789062 453.632812 653.671875 475.664062 657.539062 513.632812 C 660.351562 542.226562 652.265625 568.359375 634.6875 586.875 Z M 634.6875 586.875 "/></g></svg>