<svg xmlns="http://www.w3.org/2000/svg" xmlns:xlink="http://www.w3.org/1999/xlink" width="1000" zoomAndPan="magnify" viewBox="0 0 750 749.999995" height="1000" preserveAspectRatio="xMidYMid meet" version="1.2"><defs><clipPath id="83042ef9f7"><path d="M 46.5 0 L 703.5 0 C 729.179688 0 750 20.820312 750 46.5 L 750 703.5 C 750 729.179688 729.179688 750 703.5 750 L 46.5 750 C 20.820312 750 0 729.179688 0 703.5 L 0 46.5 C 0 20.820312 20.820312 0 46.5 0 Z M 46.5 0 "/></clipPath><clipPath id="e07d647c2a"><path d="M 41.992188 90.464844 L 707 90.464844 L 707 664 L 41.992188 664 Z M 41.992188 90.464844 "/></clipPath><clipPath id="81eab0c286"><path d="M 173 90.464844 L 574 90.464844 L 574 437 L 173 437 Z M 173 90.464844 "/></clipPath></defs><g id="f6d6b9e6ae"><g clip-rule="nonzero" clip-path="url(#83042ef9f7)"><rect x="0" width="750" y="0" height="749.999995" style="fill:#ffffff;fill-opacity:1;stroke:none;"/></g><g clip-rule="nonzero" clip-path="url(#e07d647c2a)"><path style=" stroke:none;fill-rule:nonzero;fill:#41b883;fill-opacity:1;" d="M 573.882812 90.464844 L 706.855469 90.464844 L 374.425781 663.695312 L 41.992188 90.464844 L 296.304688 90.464844 L 374.425781 223.390625 L 450.882812 90.464844 Z M 573.882812 90.464844 "/><path style=" stroke:none;fill-rule:nonzero;fill:#41b883;fill-opacity:1;" d="M 41.992188 90.464844 L 374.425781 663.695312 L 706.855469 90.464844 L 573.882812 90.464844 L 374.425781 434.40625 L 173.304688 90.464844 Z M 41.992188 90.464844 "/></g><g clip-rule="nonzero" clip-path="url(#81eab0c286)"><path style=" stroke:none;fill-rule:nonzero;fill:#35495e;fill-opacity:1;" d="M 173.304688 90.464844 L 374.425781 436.066406 L 573.882812 90.464844 L 450.882812 90.464844 L 374.425781 223.390625 L 296.304688 90.464844 Z M 173.304688 90.464844 "/></g></g></svg>